<?xml version="1.0" standalone="no"?>
<!DOCTYPE svg PUBLIC "-//W3C//DTD SVG 1.1//EN" "http://www.w3.org/Graphics/SVG/1.1/DTD/svg11.dtd" >
<svg>
<metadata>
Created by FontForge 20120731 at Mon Oct 26 09:40:59 2020
 By www
Copyright (c) 1990 Adobe Systems Incorporated.  All Rights Reserved.Duc De Berry is a trademark of Linotype AG and/or its subsidiaries.
</metadata>
<defs>
<font id="DucDeBerryDfr" horiz-adv-x="240" >
  <font-face 
    font-family="DucDeBerry"
    font-weight="400"
    font-stretch="normal"
    units-per-em="1000"
    panose-1="0 0 4 0 0 0 0 0 0 0"
    ascent="800"
    descent="-200"
    x-height="508"
    cap-height="732"
    bbox="-93 -251 1146 955"
    underline-thickness="50"
    underline-position="-75"
    unicode-range="U+0020-F002"
  />
<missing-glyph horiz-adv-x="500" 
d="M63 0v773h375v-773h-375zM125 63h250v648h-250v-648z" />
    <glyph glyph-name=".notdef" horiz-adv-x="500" 
d="M63 0v773h375v-773h-375zM125 63h250v648h-250v-648z" />
    <glyph glyph-name=".null" horiz-adv-x="0" 
 />
    <glyph glyph-name="nonmarkingreturn" 
 />
    <glyph glyph-name="space" unicode=" " 
 />
    <glyph glyph-name="exclam" unicode="!" horiz-adv-x="278" 
d="M110 160v0l-10 4q11 17 11 162q0 114 -16 320q77 43 100 74l8 -6q-32 -96 -32 -508q-51 -24 -61 -46zM146 -12v0l-11 6q2 4 2 11q0 3 -24 19.5t-40 23.5q41 43 54 78q26 -27 78 -55q-37 -38 -59 -83z" />
    <glyph glyph-name="quotedbl" unicode="&#x22;" horiz-adv-x="333" 
d="M202 673q0 21 11 34t25 13t25 -13t11 -34q0 -66 -11 -109t-25 -43t-25 43t-11 109zM59 673q0 21 11 34t25 13t25 -13t11 -34q0 -66 -11 -109t-25 -43t-25 43t-11 109z" />
    <glyph glyph-name="numbersign" unicode="#" horiz-adv-x="389" 
d="M10 59l-12 14q31 33 75 90q75 -26 122 -58q36 -25 41 -25q23 0 45 28.5t22 50.5q0 31 -31 49q-25 16 -94 32q-86 20 -111 34t-25 44q0 49 70 122q65 68 88 68q12 0 54 -24.5t54 -24.5q15 0 42 36l13 -11q-69 -97 -83 -97q-13 0 -55 27.5t-65 27.5q-21 0 -36.5 -23.5
t-15.5 -47.5q0 -23 16.5 -34t80.5 -28q93 -24 125.5 -41.5t32.5 -45.5q0 -66 -151 -228q-99 91 -160 91q-23 0 -42 -26z" />
    <glyph glyph-name="dollar" unicode="$" horiz-adv-x="481" 
d="M235 96l4 185q-112 37 -149 66q-30 24 -30 62q0 55 75 128q54 52 109 83v72l40 28l-8 -109q91 -60 119 -60q16 0 38 21l11 -7q-66 -86 -86 -86q-21 0 -84 44l-4 -169q100 -30 133.5 -54t33.5 -63q0 -87 -173 -249q1 -27 6 -68l-48 -30q6 70 7 104q-34 35 -96 69
q-54 29 -71 29q-20 0 -59 -50l-14 7q74 121 105 121q16 0 141 -74zM240 363l4 176q-15 14 -38 14q-22 0 -52 -31q-34 -35 -34 -70q0 -28 23.5 -46t96.5 -43zM269 271l-4 -192q11 -6 27 -6q24 0 57.5 37t33.5 74q0 26 -17 41q-24 21 -97 46z" />
    <glyph glyph-name="percent" unicode="%" horiz-adv-x="666" 
d="M39 450q0 76 54 138t115 62q37 0 67 -32q34 -36 34 -91q0 -90 -51 -155q-48 -60 -105 -60q-46 0 -80 39.5t-34 98.5zM267 475q0 56 -27 94.5t-71 38.5q-36 0 -62 -31t-26 -84q0 -65 34 -102q29 -31 69 -31q37 0 60 32.5t23 82.5zM357 132q0 76 54 138t115 62q37 0 67 -32
q34 -36 34 -91q0 -90 -51 -155q-48 -60 -105 -60q-46 0 -80 39.5t-34 98.5zM585 157q0 56 -27 94.5t-71 38.5q-36 0 -62 -31t-26 -84q0 -65 34 -102q29 -31 69 -31q37 0 60 32.5t23 82.5zM513 640q-178 -334 -304 -656q-20 10 -56 20q178 334 304 656q20 -10 56 -20z" />
    <glyph glyph-name="ampersand" unicode="&#x26;" horiz-adv-x="648" 
d="M603 662l17 8q9 -50 9 -63q0 -10 -19 -26q-24 -20 -118 -84v-2q24 7 32 7q23 0 42 -73q18 -67 18 -127q0 -65 -26 -121q-29 -64 -59 -127q-93 -60 -183 -60q-98 0 -173 70q-78 71 -78 169q0 66 41 134q34 55 84 97q45 38 65 38q18 0 44 -27t35 -59q152 104 224 171
q47 43 47 56q0 7 -2 19zM350 341l-10 43l-192 -141l6 56h9q0 -10 4 -10q5 0 46 31.5t41 42.5q0 21 -11 42q-13 25 -33 25q-27 0 -54 -39q-31 -42 -31 -94q0 -71 59 -146q68 -85 157 -85q76 0 131 43q64 50 64 141q0 79 -29 143q-28 61 -58 61q-18 0 -51 -26q-36 -28 -36 -48
q0 -11 3 -32z" />
    <glyph glyph-name="quotesingle" unicode="'" horiz-adv-x="222" 
d="M75 673q0 21 11 34t25 13t25 -13t11 -34q0 -66 -11 -109t-25 -43t-25 43t-11 109z" />
    <glyph glyph-name="parenleft" unicode="(" horiz-adv-x="315" 
d="M281 720l6 -6q-62 -63 -97 -180q-33 -111 -33 -235q0 -250 117 -408q-35 -26 -52 -59q-61 102 -88 198q-31 109 -31 250q0 248 126 421q23 4 52 19z" />
    <glyph glyph-name="parenright" unicode=")" horiz-adv-x="315" 
d="M34 -168l-6 6q62 63 97 181q33 110 33 234q0 250 -117 408q35 26 52 59q61 -102 88 -198q31 -109 31 -250q0 -248 -126 -421q-23 -4 -52 -19z" />
    <glyph glyph-name="asterisk" unicode="*" horiz-adv-x="426" 
d="M387 84l42 48l14 -12l-104 -126q-58 62 -65 153h-2q-69 -114 -129 -153l-8 6l7 8q-46 37 -78.5 100.5t-32.5 123.5q0 68 44 124q38 47 167 152q88 -73 141 -77q-49 -54 -49 -211q0 -119 53 -136zM97 279q0 -87 38 -145q30 -48 58 -48q23 0 45.5 46.5t26.5 112.5
q7 120 20 142q-22 7 -54 27q-28 17 -34 17q-23 0 -56 -37q-44 -47 -44 -115zM138 539l-12 11q12 18 12 22q0 13 -44 44q38 25 61 67q47 -36 47 -55q0 -13 -13 -31q-9 -12 -51 -58zM312 539l-12 11q12 18 12 22q0 13 -44 44q38 25 61 67q47 -36 47 -55q0 -13 -13 -31
q-9 -12 -51 -58z" />
    <glyph glyph-name="plus" unicode="+" horiz-adv-x="463" 
d="M149 548l-12 11q12 18 12 22q0 13 -44 44q38 25 61 67q47 -36 47 -55q0 -13 -13 -31q-9 -12 -51 -58zM324 548l-12 11q12 18 12 22q0 13 -44 44q38 25 61 67q47 -36 47 -55q0 -13 -13 -31q-9 -12 -51 -58zM422 71l44 48l15 -11q-45 -47 -94 -114q-40 51 -87 77
q19 37 19 112l-2 2q-43 -71 -150 -185l-11 8l5 5q-19 20 -49.5 43t-37.5 23q-4 0 -6 -2l-5 9q44 18 44 208q0 92 -58 120l-32 -32l-12 13q54 53 95 107l12 -13l-4 -6q39 -31 54 -76q11 -34 11 -92q0 -34 -9 -109.5t-14 -83.5q27 -15 57 -48q75 76 101 139q17 41 17 153
q0 41 -6 85q34 19 87 57q-27 -175 -27 -319q0 -58 3 -81z" />
    <glyph glyph-name="comma" unicode="," 
d="M85 -85l-21 15q33 58 33 70q0 16 -46 41q22 21 48 73q66 -47 66 -58q0 -22 -80 -141z" />
    <glyph glyph-name="hyphen" unicode="-" horiz-adv-x="407" 
d="M74 244l-13 9q23 47 38 61q12 11 31 11q10 0 48.5 -1.5t73.5 -1.5q50 0 61.5 3t19.5 19l13 -9q-24 -50 -33 -61.5t-23 -11.5q-29 0 -92 1t-90 1q-25 0 -34 -20z" />
    <glyph glyph-name="hyphen" unicode="&#x2010;" horiz-adv-x="407" 
d="M74 244l-13 9q23 47 38 61q12 11 31 11q10 0 48.5 -1.5t73.5 -1.5q50 0 61.5 3t19.5 19l13 -9q-24 -50 -33 -61.5t-23 -11.5q-29 0 -92 1t-90 1q-25 0 -34 -20z" />
    <glyph glyph-name="period" unicode="." 
d="M127 -12v0l-11 6q2 4 2 11q0 3 -24 19.5t-40 23.5q41 43 54 78q26 -27 78 -55q-37 -38 -59 -83z" />
    <glyph glyph-name="slash" unicode="/" horiz-adv-x="389" 
d="M323 726q34 -16 67 -22q-188 -358 -324 -710q-34 16 -67 22q188 358 324 710z" />
    <glyph glyph-name="zero" unicode="0" horiz-adv-x="480" 
d="M450 301q0 -109 -70 -205q-73 -102 -169 -102q-74 0 -126 59q-55 62 -55 161q0 114 90 204q82 84 166 84q70 0 117 -56t47 -145zM96 274q0 -103 43 -158.5t115 -55.5q61 0 98.5 44t37.5 128q0 108 -56 165q-43 45 -98 45q-68 0 -106 -51q-34 -46 -34 -117z" />
    <glyph glyph-name="one" unicode="1" horiz-adv-x="315" 
d="M144 421l-117 -59q14 23 18 59q76 34 180 87q-21 -149 -21 -340q0 -95 8 -150q-66 -32 -90 -54q20 178 22 457z" />
    <glyph glyph-name="two" unicode="2" horiz-adv-x="389" 
d="M44 419l47 77q46 12 90 12q60 0 96 -22q40 -24 40 -71q0 -60 -114 -206q-93 -119 -151 -169l2 -2q43 39 67 39q25 0 81.5 -8.5t73.5 -8.5q24 0 38 7.5t37 37.5l12 -8q-59 -78 -74 -93.5t-30 -15.5q-5 0 -94.5 14.5t-107.5 14.5q-15 0 -49 -29l-17 12q64 65 142 170
q106 144 106 203q0 63 -102 63q-60 0 -85 -25z" />
    <glyph glyph-name="three" unicode="3" horiz-adv-x="407" 
d="M74 191l-10 8q144 157 144 197q0 17 -43 37t-79 20q-18 0 -42 -31l-11 7q63 96 95 96q17 0 88 -30q76 -32 76 -48q0 -17 -36 -59q-30 -36 -129 -138l2 -2q27 23 56 23q62 0 113 -32q62 -38 62 -101q0 -52 -47 -132q-49 -83 -117 -139q-79 -64 -151 -64q-40 0 -66 11
q-20 9 -20 17q0 7 56 70q0 -32 75 -32q80 0 138 68q54 65 54 148q0 120 -176 120q-18 0 -32 -14z" />
    <glyph glyph-name="four" unicode="4" horiz-adv-x="444" 
d="M13 119l-5 13q84 110 113 157q59 93 89 185q46 18 104 50q-12 -224 -15 -335q134 0 134 -10q0 -6 -52 -91l-9 3q6 10 6 13q0 13 -12 17q-16 5 -69 5q-2 -28 -2 -91q0 -30 1.5 -88t1.5 -87q-45 -23 -83 -57q16 105 20 323q-159 0 -222 -7zM88 184l147 4q1 73 1 222h-2
q-89 -163 -146 -226z" />
    <glyph glyph-name="five" unicode="5" horiz-adv-x="407" 
d="M66 166l-6 3q8 130 8 242q61 32 114 91h175q22 0 30.5 3.5t21.5 19.5l12 -6q-15 -24 -30 -49q-24 -34 -43 -34q-101 0 -206 3l-16 -193q53 12 85 12q143 0 143 -124q0 -55 -48 -132q-50 -82 -122 -137q-83 -62 -166 -62q-73 0 -73 19q0 15 51 69q0 -28 65 -28
q107 0 173 86q54 71 54 149q0 88 -130 88q-56 0 -92 -20z" />
    <glyph glyph-name="six" unicode="6" horiz-adv-x="463" 
d="M185 320l-9 7q33 42 76 85q3 0 7 1h7q65 0 116 -50q47 -47 47 -100q0 -98 -63 -181q-67 -88 -155 -88q-76 0 -126 58q-48 54 -48 132q0 106 68 246q66 135 159 228q32 6 81 29v-5q-91 -84 -151 -188q-79 -137 -79 -268q0 -91 48 -137q36 -35 89 -35q43 0 80 33
q43 40 43 105q0 61 -41.5 105t-100.5 44q-19 0 -48 -21z" />
    <glyph glyph-name="seven" unicode="7" horiz-adv-x="389" 
d="M29 407l-14 7q32 62 48 81q12 13 27 13q17 0 106.5 -13t105.5 -13q48 0 76 20l8 -11q-72 -84 -133 -266q-56 -166 -90 -370q-75 -36 -97 -52q59 234 96 348q46 141 113 276q-15 -5 -34 -5q-34 0 -98.5 7t-72.5 7q-26 0 -41 -29z" />
    <glyph glyph-name="eight" unicode="8" horiz-adv-x="426" 
d="M163 572l12 -5q-38 -41 -38 -76q0 -28 32 -57q12 -11 54 -41q73 78 73 131q0 33 -27.5 55.5t-61.5 22.5q-28 0 -50 -22l-11 6q32 36 48 47q26 17 62 17q49 0 77 -29q23 -23 23 -53q0 -35 -19 -71q-25 -46 -93 -121l96 -76q50 -40 50 -91q0 -58 -67 -133q-73 -82 -154 -82
q-60 0 -103 50q-38 45 -38 96q0 35 24 72q30 47 115 126q-96 62 -96 107q0 39 92 127zM264 264l-79 60q-91 -87 -91 -157q0 -48 36.5 -83.5t82.5 -35.5q42 0 76.5 30.5t34.5 79.5q0 35 -12.5 57t-47.5 49z" />
    <glyph glyph-name="nine" unicode="9" horiz-adv-x="463" 
d="M273 196l13 -7q-46 -60 -68 -76q-17 -13 -40 -13q-64 0 -107.5 42.5t-43.5 99.5q0 89 71 172q74 88 163 88q60 0 106 -49q52 -56 52 -148q0 -181 -250 -476q-34 0 -83 -26q255 281 255 466q0 89 -45 136q-36 37 -86 37q-48 0 -87 -37q-42 -41 -42 -101q0 -61 43 -104
q39 -40 88 -40q26 0 61 36z" />
    <glyph glyph-name="colon" unicode=":" 
d="M127 364v0l-11 6q2 4 2 11q0 3 -24 19.5t-40 23.5q41 43 54 78q26 -27 78 -55q-37 -38 -59 -83zM127 -12v0l-11 6q2 4 2 11q0 3 -24 19.5t-40 23.5q41 43 54 78q26 -27 78 -55q-37 -38 -59 -83z" />
    <glyph glyph-name="semicolon" unicode=";" 
d="M85 -83l-21 15q33 58 33 70q0 16 -46 41q22 21 48 73q66 -47 66 -58q0 -22 -80 -141zM127 364v0l-11 6q2 4 2 11q0 3 -24 19.5t-40 23.5q41 43 54 78q26 -27 78 -55q-37 -38 -59 -83z" />
    <glyph glyph-name="less" unicode="&#x3c;" horiz-adv-x="600" 
d="M47 223v60l506 231v-60l-435 -201l435 -201v-60z" />
    <glyph glyph-name="equal" unicode="=" horiz-adv-x="463" 
d="M260 422l48 47v50q0 48 16 80q9 20 28 36q16 14 16 19q0 11 -17 24q-20 15 -45 15q-38 0 -73 -20.5t-52 -52.5q-29 -53 -29 -325q0 -150 2 -175q1 -16 18 -30.5t24 -14.5q12 0 46 38l12 -11q-45 -44 -92 -114l-10 6q1 2 1 8t-31 31.5t-38 25.5q-8 0 -16 -2l-6 8
q17 17 20.5 56.5t3.5 242.5q0 51 -1 60.5t-6 9.5q-6 0 -31 -22l-10 10q16 21 48 47v46q0 47 13.5 74.5t53.5 55.5q80 56 119 73t86 17q43 0 74 -31q25 22 62 40t57 18q21 0 39 -15q14 -12 14 -20q0 -14 -56 -78l-11 8q9 12 9 21t-10 18q-13 12 -35 12t-48 -19.5t-42 -47.5
q-29 -50 -35 -166q-2 -31 -2 -180q0 -150 2 -175q1 -16 18 -30.5t24 -14.5q12 0 46 38l12 -11q-45 -44 -92 -114l-10 6q1 2 1 8t-31 31.5t-38 25.5q-8 0 -16 -2l-6 8q17 17 20.5 56.5t3.5 242.5q0 51 -1 60.5t-6 9.5q-6 0 -31 -22z" />
    <glyph glyph-name="greater" unicode="&#x3e;" horiz-adv-x="600" 
d="M482 253l-435 201v60l506 -231v-60l-506 -231v60z" />
    <glyph glyph-name="question" unicode="?" horiz-adv-x="389" 
d="M132 163l-9 5q2 71 41 158q36 70 72 139q39 75 39 115q0 68 -88 68q-57 0 -94 -28q-27 -21 -27 -34q0 -15 3 -25l-15 -3q-18 59 -18 101q0 12 45 34q58 27 133 27q59 0 99 -28.5t40 -76.5q0 -50 -41 -119q-77 -126 -78 -127q-41 -84 -41 -170q-35 -14 -61 -36zM169 -12v0
l-11 6q2 4 2 11q0 3 -24 19.5t-40 23.5q41 43 54 78q26 -27 78 -55q-37 -38 -59 -83z" />
    <glyph glyph-name="at" unicode="@" horiz-adv-x="800" 
d="M518 448q0 60 -45 60q-47 0 -96 -57q-57 -67 -57 -159q0 -91 72 -91q42 0 83 71q43 76 43 176zM538 494l12 43h72l-64 -257q-10 -40 -10 -48q0 -43 43 -43q52 0 96 58q51 65 51 166q0 118 -95 203.5t-223 85.5q-135 0 -220 -95q-90 -101 -90 -275q0 -131 92 -219.5
t228 -88.5q99 0 214 52l14 -27q-138 -61 -227 -61q-167 0 -286 101.5t-119 254.5q0 170 117 281q113 107 277 107q150 0 252 -91t102 -227q0 -111 -63 -185q-59 -70 -137 -70q-47 0 -76 32q-22 24 -22 43h-2q-20 -26 -53 -48q-39 -27 -70 -27q-103 0 -103 133q0 98 68 180
q66 78 137 78q64 0 83 -56h2z" />
    <glyph glyph-name="A" unicode="A" horiz-adv-x="833" 
d="M57 6q90 0 202 115q85 89 153 208q-32 7 -90 7q-190 0 -288 -87q-72 -65 -72 -145q0 -37 19 -63q25 -35 76 -35zM531 732l7 18q113 -29 128 -48q7 -9 29 -205q26 -230 48 -334l7 -33q13 -62 32 -62q10 0 44 45l14 -12q-52 -74 -68.5 -93.5t-28.5 -19.5q-57 0 -82 155
q-36 218 -63 418q-21 -1 -51 -60q-55 -111 -85 -159q68 -9 92 -23q14 -17 56 -51q-39 -39 -56 -73q-42 32 -76 47q21 9 21 39t-50 40q-82 -132 -180 -223q-118 -110 -212 -110q-59 0 -89 41q-24 32 -24 75q0 81 77 152q105 98 307 98q50 0 96 -6q42 81 68 147q9 27 19 53
q11 15 86 25q-11 86 -28 122q-14 29 -38 37z" />
    <glyph glyph-name="B" unicode="B" horiz-adv-x="852" 
d="M749 614l13 15l12 -8q-64 -79 -147 -166q66 -3 123.5 -53t57.5 -112q0 -89 -77 -159q-48 -44 -151 -96q-91 -47 -103 -64q-22 22 -111 57q-92 36 -129 36q-28 0 -54 -26l-11 11q74 87 108 87q8 0 18 -2q33 53 47 100q-123 24 -211 102q-97 85 -97 194q0 95 53 151
q48 51 119 51q80 0 128 -45q52 -49 76 -159h2q17 87 82 156q56 60 92 60q14 0 68 -59q56 -63 92 -71zM730 242q0 56 -53 106q-51 47 -99 47q-19 0 -26 -8l-8 8q64 49 132 166q-21 10 -78 66q-52 51 -63 51q-31 0 -65.5 -65.5t-44.5 -136.5q-21 -151 -50 -225q66 0 66 40
q0 22 -19 41q46 11 83 39q10 -44 44 -85q-30 -9 -76 -40q-29 -19 -68 -19q-13 0 -37 3q-14 -46 -49 -101q20 -5 110 -43q78 -34 109 -34q52 0 115 47q77 58 77 143zM362 386q0 130 -59 219q-57 85 -134 85q-55 0 -86 -47q-28 -42 -28 -110q0 -106 92 -187q85 -75 203 -93
q12 65 12 133z" />
    <glyph glyph-name="C" unicode="C" horiz-adv-x="648" 
d="M294 212l-27 17q-3 107 -3 214q-32 39 -74 59q15 8 38 32q30 30 37 36q1 13 2.5 38t1.5 37q-93 -34 -142 -108q-47 -69 -47 -160q0 -144 147 -233q121 -74 251 -74q23 0 44 12q25 14 110 79l12 -14q-110 -83 -182 -166q-5 7 -34 13q-426 93 -426 351q0 109 80 200
q73 83 190 131q3 43 9 86l24 -20q-10 -44 -18 -152q38 36 111 78q59 33 78 64q5 -16 90 -39q82 -23 82 -34q0 -18 -87 -128l-13 10q25 26 25 49q0 17 -48.5 32.5t-94.5 15.5q-42 0 -88 -29.5t-46 -56.5q0 -29 44 -58q-34 -19 -58 -44q0 -133 12 -238z" />
    <glyph glyph-name="D" unicode="D" horiz-adv-x="815" 
d="M371 -78l-24 14q-4 46 -6 93q-128 46 -167 46q-22 0 -63 -53l-17 8q67 83 80 98q17 19 27 19q26 0 137 -38v41q-1 28 -1 41t1 41v41q-43 -24 -78 -24q-85 0 -152 65q-73 71 -73 177q0 109 99 179q88 62 199 62q180 0 311.5 -122.5t131.5 -283.5q0 -140 -88 -242
q-83 -96 -180 -96q-68 0 -149 34zM353 565l24 -14q-6 -50 -15 -149q11 -30 57 -61q-31 -18 -63 -54v-47q-1 -31 -1 -46t1 -45v-46q152 -55 218 -55q53 0 100 51q54 61 54 158q0 166 -150 293q-143 122 -310 122q-91 0 -151 -47q-64 -51 -64 -139t62.5 -150.5t141.5 -62.5
q29 0 47 9q14 8 14 18q0 30 -39 41q31 24 38 30q19 18 25 34q3 49 11 160z" />
    <glyph glyph-name="E" unicode="E" horiz-adv-x="685" 
d="M324 209l-24 11q-4 44 -12 227q-22 33 -67 61q44 30 69 63q1 28 6 79q-59 -15 -118 -83q-73 -85 -73 -192q0 -109 90 -187q68 -59 177 -94q81 -25 128 -25q27 0 54 15.5t104 73.5l10 -14q-163 -123 -183 -163q-80 29 -154 49q-147 40 -227 125q-77 81 -77 182
q0 122 85 217q74 83 187 124q3 32 16 84l22 -16q-18 -57 -23 -153h2q15 13 102 69q73 47 89 70q12 -16 95 -41q76 -24 76 -39q0 -6 -30 -43q-39 -50 -56 -77l-16 7q24 36 24 53q0 19 -55 36q-48 14 -80 14q-41 0 -89 -27q-51 -29 -51 -60q0 -35 43 -59q-43 -20 -58 -49
q2 -46 4 -134h2q22 41 54 79l56 64q16 -9 66 -17t68 -16l11 10l12 -7q-22 -30 -87 -134l-14 6l2 3q23 39 23 47q0 13 -46 22q-35 7 -57 7q-28 0 -59 -44q-27 -38 -27 -56q0 -35 6 -68z" />
    <glyph glyph-name="F" unicode="F" horiz-adv-x="500" 
d="M152 650l12 -11q-11 -18 -11 -30q0 -76 88 -256q56 22 121 22q31 0 59 -24q37 -33 54 -40q-40 -26 -53 -79q-47 39 -83 43q23 18 23 41q0 29 -45 29q-38 0 -65 -13q89 -162 119 -235q25 -61 25 -107q0 -87 -47 -148q-48 -64 -119 -64q-79 0 -139 68q-67 75 -67 195
q0 92 51 176q43 72 95 101q-60 110 -74.5 142t-14.5 55q0 30 71 135zM336 -75q0 51 -24 112q-30 74 -133 262q-51 -29 -91 -98q-46 -78 -46 -158q0 -111 60 -182q55 -65 127 -65q44 0 72 26q35 34 35 103zM500 650l8 -9q-78 -64 -96 -64q-25 0 -90.5 50t-74.5 50
q-15 0 -25.5 -32t-10.5 -78q0 -61 35 -123l-19 9q-40 75 -40 141q0 50 19 93q15 35 28 40q35 7 79 23q7 -28 65 -70.5t91 -42.5q14 0 31 13z" />
    <glyph glyph-name="G" unicode="G" horiz-adv-x="796" 
d="M312 762l23 -20q-11 -60 -23 -144h2q45 55 192 142q5 -15 66.5 -52.5t88.5 -37.5q16 0 24 11l10 -7q-81 -108 -153 -182q206 -41 206 -164q0 -40 -36 -96.5t-85 -93.5q-112 -84 -165 -137q-7 6 -16 7q-166 28 -286 117q-133 100 -133 227q0 208 276 346q2 26 7 77z
M325 207l-26 9q-9 144 -9 242q-34 47 -66 62q39 25 70 60q0 10 5 65q-83 -23 -135.5 -97t-52.5 -168q0 -146 147 -237q115 -72 225 -72q63 0 131 60t68 120q0 58 -61.5 105t-131.5 47q-14 0 -37 -23l-13 9q68 62 96 99t56 101q-98 61 -155 61q-34 0 -72 -31t-38 -59
q0 -27 41 -52q-39 -23 -59 -50q5 -114 17 -251z" />
    <glyph glyph-name="H" unicode="H" horiz-adv-x="796" 
d="M664 215q0 68 -24 110q-65 -46 -145 -46q-43 0 -75 11q-3 -12 -3 -58q0 -110 53 -150q-49 -26 -87 -82q-93 75 -154 104q-40 -52 -98 -84t-108 -32q-44 0 -68 26q-21 23 -21 58q0 53 57 100t128 47q65 0 134 -33q47 91 68 174q-3 3 -34 46q33 18 58 35q35 163 58 181
q34 28 101 60q78 38 119 38q59 0 99.5 -49.5t40.5 -113.5q0 -77 -56 -158q35 -56 35 -138q0 -97 -46 -168q-40 -62 -127 -120q-66 -44 -66 -94q0 -18 9 -28q-29 -9 -42 -36q-9 17 -9 36q0 41 26 74q22 27 87 76q90 68 90 214zM721 512q0 81 -65 130q-49 36 -94 36
q-32 0 -64 -27q-38 -33 -64 -98l-51 -129q7 -8 32 -27q-17 -2 -31 -13.5t-14 -24.5q0 -31 38 -47q28 97 94 155q53 47 99 47q17 0 50 -35q28 -29 45 -57q25 38 25 90zM528 442q-31 0 -60 -40.5t-43 -95.5q25 -9 65 -9q82 0 141 47q-41 98 -103 98zM399 224q0 42 5 72
q-29 11 -52 34q-22 -52 -75 -155q49 -27 148 -80q-26 77 -26 129zM57 159q-48 0 -79 -30q-26 -26 -26 -55q0 -68 73 -68q44 0 97 31t86 77q-90 45 -151 45z" />
    <glyph glyph-name="I" unicode="I" horiz-adv-x="444" 
d="M42 601l-15 8q47 81 73 107q16 16 34 16q23 0 130 -41t121 -41q15 0 33 9l7 -9q-61 -41 -75 -61t-14 -65q0 -108 18 -175q30 -112 30 -171q0 -65 -62 -124.5t-130 -59.5q-77 0 -119 49t-42 136q0 51 27 121q29 74 60 91q37 20 70 47q19 -46 54 -70q-33 -16 -67 -58
q-16 44 -41 44q-23 0 -52 -56q-33 -62 -33 -128q0 -80 45 -123q37 -35 91 -35q49 0 82 31q39 36 39 104q0 48 -21 154.5t-21 174.5q0 63 74 121l-2 2q-15 -3 -21 -3q-13 0 -95.5 29t-114.5 29q-28 0 -63 -53z" />
    <glyph glyph-name="J" unicode="J" horiz-adv-x="481" 
d="M76 601l-15 8q47 81 73 107q16 16 34 16q36 0 132 -40.5t119 -40.5q14 0 33 8l7 -10q-61 -41 -75 -60.5t-14 -64.5q0 -84 28 -221t28 -237q0 -102 -62 -180q-66 -83 -166 -83q-91 0 -150.5 82t-59.5 199q0 120 85 197q66 60 125 60q13 0 40.5 -14t43.5 -17
q-38 -45 -42 -100q-41 26 -92 43q24 24 24 43q0 9 -14 9q-35 0 -85 -50q-67 -67 -67 -169q0 -108 56 -185q56 -80 139 -80q56 0 95 39q52 53 52 164q0 91 -25 231t-25 221q0 64 74 121l-2 2q-10 -2 -21 -2q-13 0 -95.5 28.5t-114.5 28.5q-28 0 -63 -53z" />
    <glyph glyph-name="K" unicode="K" horiz-adv-x="667" 
d="M597 492l-10 10q15 20 15 42q0 60 -45 106q-64 64 -196 64q-90 0 -150 -44q-64 -47 -64 -126q0 -45 49 -149t49 -144q0 -56 -53 -147q69 -24 95 -36q-8 83 -11 246q-13 33 -51 64q31 24 52 51q4 151 10 221l24 -14q-7 -55 -15 -187q127 119 148 119q18 0 50 -46
q36 -52 53 -52q8 0 13 5l7 -8q-103 -115 -175 -168l2 -2q23 7 36 7q24 0 45 -37q49 -86 139 -200q13 -16 20 -16q13 0 30 17l8 -10q-59 -70 -86 -70q-13 0 -35 29q-27 36 -121 181q-45 70 -70 70q-12 0 -20 -4l-6 7q31 21 75 63q50 49 78 90q-27 15 -55 50q-24 28 -32 28
q-21 0 -52.5 -31t-31.5 -54q0 -31 38 -51q-23 -8 -60 -47q1 -122 12 -258q17 -6 50 -21q-10 -19 -47 -52l8 -43l-20 13l-4 30q-149 72 -209 72q-36 0 -54 -27l-11 8q57 79 95 79q13 0 60 -11q11 35 11 68q0 54 -55 166.5t-55 156.5q0 77 76 149q87 83 217 83q125 0 208 -52
q74 -47 74 -105q0 -22 -53 -83z" />
    <glyph glyph-name="L" unicode="L" horiz-adv-x="778" 
d="M745 107l16 -5q-50 -114 -60 -114q-7 0 -64 10l-362 64q-45 -41 -104 -69q-66 -31 -121 -31q-49 0 -78 23q-23 20 -23 44q0 45 61 86q57 39 107 39q43 0 182 -24q29 35 57 88.5t36 86.5q-37 4 -78 26q-46 25 -71 60q-13 18 -53 56q36 21 83 74q9 -22 70 -78
q-14 0 -27.5 -13t-13.5 -29q0 -60 94 -78q40 193 62 258q15 48 38 71q32 32 99 57q63 23 107 23q26 0 46 -32q21 -36 21 -90q0 -117 -113 -217q-108 -95 -214 -93q-37 -88 -109 -175q335 -53 381 -53q17 0 31 35zM709 591q0 46 -18 78.5t-44 32.5q-48 0 -86 -85
q-16 -37 -48 -132t-63 -167q101 5 180 89t79 184zM65 94q-39 0 -68.5 -17.5t-29.5 -43.5q0 -17 17 -32q22 -21 61 -21q52 0 111 29q52 25 86 59q-125 26 -177 26z" />
    <glyph glyph-name="M" unicode="M" horiz-adv-x="1148" 
d="M178 9l-11 13q138 113 177 215q-21 -3 -36 -3q-146 0 -226 80q-64 65 -64 151q0 100 85 182q72 69 124 69q54 0 117 -53q68 -59 83 -132q128 192 157 192q35 0 77 -59q55 -77 55 -195q0 -14 -2 -46h2q51 128 190 309l12 -5q-3 -4 -3 -8q0 -5 66 -49t70 -44q5 0 13 2l7 -8
q-25 -12 -49 -112q-25 -103 -25 -208q0 -88 29 -158q26 -63 51 -63q10 0 56 53l13 -10q-35 -43 -107 -134q-126 91 -126 311q0 128 52 278q-46 23 -85 48q-100 -91 -136 -199q-33 -96 -33 -269q0 -20 5 -118q-47 -26 -92 -58q20 183 20 396q0 143 -35 213q-25 49 -56 49
q-33 0 -75 -76q-37 -67 -38 -94q-4 -109 -45 -202q88 25 88 69q0 20 -14 39q51 13 82 41q10 -41 45 -84l-101 -52q-42 -21 -112 -37q-49 -86 -99 -136l2 -2q12 13 42 13q70 0 210 -67q-12 -17 -44 -69q-127 76 -228 76q-32 0 -88 -49zM180 644q-60 0 -102 -55t-42 -124
q0 -90 69 -150q74 -63 195 -63q22 0 50 5q28 85 28 160q0 109 -68 173q-58 54 -130 54z" />
    <glyph glyph-name="N" unicode="N" horiz-adv-x="907" 
d="M160 21l-10 13q46 35 95 95q48 57 68 101q-32 -2 -60 -2q-116 0 -179.5 65t-63.5 178t77 187q65 62 134 62q56 0 121 -61q82 -77 82 -191q0 -86 -61 -210q39 11 73 37.5t34 44.5q0 24 -18 40q46 14 74 42q42 138 141 308l10 -7q-4 -6 -4 -9q0 -4 66 -46t79 -42q5 0 11 4
l5 -10q-21 -13 -46 -95q-29 -96 -29 -195q0 -117 32 -193q25 -61 50 -61q12 0 56 55l11 -11q-70 -90 -105 -136q-122 105 -122 336q0 147 50 256q-36 15 -83 44q-27 -27 -64 -104q-34 -71 -42 -106q17 -47 42 -66q-8 -3 -71 -37q-23 -124 -29 -238l56 -28l-54 -66
q2 -28 6 -56l-23 7l-2 50q-44 35 -112 60t-124 25q-21 0 -71 -40zM306 121q56 0 160 -44q4 106 26 217q-55 -36 -144 -61q-36 -62 -92 -123l2 -2q16 13 48 13zM364 422q0 91 -56 160q-59 72 -141 72q-63 0 -103 -59q-36 -52 -36 -122q0 -106 59.5 -166.5t170.5 -60.5
q44 0 65 3q41 102 41 173z" />
    <glyph glyph-name="O" unicode="O" horiz-adv-x="833" 
d="M307 758l25 -20q-18 -61 -25 -140h2q14 22 84.5 66.5t87.5 67.5q16 -14 112.5 -53t142.5 -80q70 -63 70 -157q0 -160 -154 -314q-108 -42 -195 -134q-214 41 -317 119q-113 85 -113 225q0 118 77 204q62 70 191 133q4 39 12 83zM315 206l-30 14q-8 82 -8 120q0 31 1 67.5
t1 45.5q-10 35 -61 69q42 8 65 49q2 14 8 76q-192 -71 -192 -278q0 -127 133 -216q113 -75 221 -75q120 0 204 109q77 99 77 217q0 91 -93 164.5t-213 73.5q-43 0 -76.5 -27t-33.5 -49q0 -35 46 -58q-38 -20 -63 -47q0 -170 14 -255z" />
    <glyph glyph-name="P" unicode="P" horiz-adv-x="852" 
d="M358 137v45q-126 27 -216 114q-103 100 -103 235q0 88 65 150q59 57 125 57q80 0 135 -79q50 -74 59 -180h2q37 88 96.5 164.5t90.5 76.5q57 0 117 -115q65 -124 65 -263q0 -93 -24.5 -152t-78.5 -102q-43 -35 -89 -65q-35 -24 -46 -35q-22 19 -140 55q-2 -86 -2 -120
q0 -20 5 -115q-64 -21 -97 -51q32 198 36 304q-28 9 -54 9q-37 0 -73 -49l-13 11q76 110 112 110q11 0 28 -5zM419 178l-2 -58q160 -53 186 -53q46 0 84 50q41 55 41 141q0 126 -55 260q-53 130 -101 130q-24 0 -55 -39q-34 -45 -64 -127q-20 -54 -34 -280q41 0 63.5 15.5
t22.5 37.5q0 18 -25 40q47 16 86 50q13 -44 47 -80q-12 -6 -42 -30.5t-46 -32.5q-38 -19 -106 -24zM358 202l-6 200q-4 146 -59 224q-45 64 -103 64q-49 0 -87 -40q-46 -48 -46 -128q0 -118 105 -217q93 -88 196 -103z" />
    <glyph glyph-name="Q" unicode="Q" horiz-adv-x="833" 
d="M315 202l-27 12q-8 107 -8 223q-24 36 -70 61q15 6 39 31q37 40 39 42q1 25 5 73q-85 -31 -136 -96q-58 -72 -58 -171q0 -100 76 -178q59 -60 154 -97q74 -30 117 -30q30 0 68 21l7 -9q-95 -78 -138 -78q-38 0 -116 34q-98 43 -159 106q-81 83 -81 184q0 221 268 345
q4 52 8 78l25 -15q-15 -90 -17 -145l2 -2q12 13 73 58q58 42 92 83q14 -18 106 -52q101 -38 148 -80q74 -66 74 -173q0 -145 -129 -284q-102 -111 -233 -173v-2q191 -18 178 -18q41 0 58.5 9.5t45.5 44.5l16 -10q-56 -77 -79.5 -99.5t-43.5 -22.5q-19 0 -152 22t-147 22
q-18 0 -34 -26l-14 6q49 86 62 86q9 0 51 -5q106 20 221 138q128 133 128 267q0 122 -113 196q-90 60 -185 60q-37 0 -78.5 -34t-41.5 -59q0 -34 41 -57q-33 -16 -53 -43q0 -134 11 -243z" />
    <glyph glyph-name="R" unicode="R" horiz-adv-x="852" 
d="M443 -68v45q-59 35 -138 66q-75 29 -100 29q-15 0 -26.5 -7.5t-39.5 -37.5l-13 9q49 67 69 87.5t36 20.5q11 0 39 -8q28 33 51 76q-105 23 -187 104q-94 91 -94 205q0 90 54 150.5t128 60.5q76 0 130 -62q63 -73 63 -205q0 -107 -63 -237q9 -1 28 -1q18 0 29.5 9.5
t11.5 20.5q0 21 -25 33q28 19 51 45q2 112 12 164q15 81 61 155q49 78 100 78q29 0 93 -93.5t84 -93.5q8 0 14 6l10 -8q-112 -109 -249 -197l2 -2q29 10 44 10q17 0 33 -24t87 -157q68 -127 89 -127q3 0 26 14l7 -9q-74 -63 -90 -63q-29 0 -115.5 170t-111.5 170h-4
q-3 -1 -5 -1l-3 12q134 80 183 172q-26 17 -72 88q-41 61 -58 61q-44 0 -79 -77q-41 -89 -41 -233q28 -45 61 -68q-22 -16 -65 -52q0 -28 1 -86v-87q28 -15 45 -27l-43 -42q0 -12 2 -33q3 -24 3 -33zM443 66v152q-23 -15 -58 -15q-19 0 -42 4q-27 -44 -56 -77
q73 -25 156 -64zM361 391q0 118 -62 204q-60 83 -135 83q-43 0 -74.5 -45t-31.5 -114q0 -105 93 -193q83 -80 179 -95q31 78 31 160z" />
    <glyph glyph-name="S" unicode="S" horiz-adv-x="796" 
d="M477 -12q-215 34 -328 125t-113 227q0 108 87 210q67 78 170 138q85 50 115 50q13 0 35 -14q37 -25 62 -37q36 159 133 159q65 0 65 -77q0 -55 -42 -123t-81 -68q-27 0 -76 27q-12 -65 -18 -139q113 36 150 36q45 0 81 -48q38 -52 38 -127q0 -60 -65 -135
q-38 -45 -126 -120q-76 -64 -87 -84zM685 774q0 54 -47 54q-80 0 -118 -149q57 -29 87 -29q28 0 52 34q26 38 26 90zM481 100l-25 10q2 44 2 65q-35 40 -71 60q45 31 70 64q1 27 5 83q-216 -75 -234 -75q-13 0 -86 89l14 8q15 -19 48 -19q22 0 264 76q8 95 20 152
q-99 53 -142 53q-65 0 -138 -68q-94 -87 -94 -224q0 -145 132 -232q105 -70 220 -70q88 0 155 79q62 72 62 150q0 52 -21 87.5t-49 35.5q-33 0 -133 -36q-2 -32 -4 -98q28 -38 58 -55q-30 -16 -58 -52q1 -30 5 -83z" />
    <glyph glyph-name="T" unicode="T" horiz-adv-x="722" 
d="M504 169l-22 13q0 102 -1 153q-85 -46 -176 -46q-34 0 -53 3v-9q-1 -5 -1 -7q0 -102 52 -170q49 -64 117 -64q106 0 218 203q11 -11 11 -24q0 -40 -90 -122q-83 -74 -150 -107q-8 -4 -36 -4q-84 0 -142 70.5t-58 177.5q0 53 3 75q-163 73 -163 235q0 98 82 176
q74 70 149 70q41 0 223.5 -54.5t228.5 -54.5q26 0 56 41l14 -8q-45 -70 -69 -91q-16 -14 -37 -14q-28 0 -145 34q-228 -71 -262 -334q16 -4 44 -4q58 0 100 14q46 17 46 44q0 28 -22 46q36 11 66 31q2 40 8 120l20 -17q-7 -55 -12 -111q23 -29 46 -50q-26 -13 -49 -39
q2 -118 4 -176zM209 720q-74 0 -123 -49t-49 -133q0 -70 38.5 -124t104.5 -82q13 81 67 162q48 72 97 102q43 26 144 56v2q-215 66 -279 66z" />
    <glyph glyph-name="U" unicode="U" horiz-adv-x="778" 
d="M311 290l4 -99q3 -63 7 -85q11 -58 43 -58q38 0 101 80q72 91 112 216q12 37 12 216q0 37 -2 107q58 14 105 61l7 -7q-50 -121 -50 -448q0 -203 57 -203q16 0 62 54l13 -10q-99 -123 -111 -123q-21 0 -47 33q-39 51 -42 152l-2 72h-2q-50 -90 -136 -175t-124 -85
q-35 0 -58 43q-25 48 -25 134v110q-13 -3 -30 -3q-75 0 -131 52q-60 55 -60 136q0 108 85 190q72 70 132 70q29 0 55 -48q29 -53 29 -126q0 -95 -4 -233q93 36 93 73q0 20 -31 42q38 14 77 57q20 -47 61 -88q-5 -3 -62 -43q-52 -37 -138 -64zM237 538q0 60 -22 93
q-18 29 -46 29q-36 0 -82 -51q-55 -62 -55 -148q0 -75 52.5 -123t129.5 -48q7 0 21 2q2 79 2 246z" />
    <glyph glyph-name="V" unicode="V" horiz-adv-x="833" 
d="M184 39l-12 9q79 93 110 93q10 0 19 -3q29 51 40 95q-120 13 -209 99q-95 92 -95 219q0 86 70 148q58 51 111 51q47 0 103 -59q69 -75 84 -193h2q50 105 115 172q55 58 88 58q46 0 102 -113q61 -122 61 -255q0 -167 -93 -260q-29 -29 -108 -73q-74 -42 -89 -59
q-16 16 -106 59q-100 48 -141 48q-22 0 -52 -36zM508 289q0 22 -28 39q39 18 81 60q21 -47 57 -82q-19 -13 -53.5 -36t-67.5 -31q-38 -9 -117 -9q-12 -31 -53 -99q56 -21 140 -62q51 -25 78 -25q42 0 92 46q76 69 76 200q0 117 -61 243q-57 117 -94 117q-30 0 -72.5 -64
t-72.5 -154q-4 -106 -26 -184q121 1 121 41zM356 353q0 161 -74 263q-59 80 -116 80q-40 0 -73 -38q-38 -45 -38 -117q0 -115 93 -202q88 -83 197 -89q11 53 11 103z" />
    <glyph glyph-name="W" unicode="W" horiz-adv-x="1093" 
d="M172 21l-14 8q79 110 110 110q16 0 24 -2q22 39 25 46q12 24 20 53q-106 9 -191 78q-109 88 -109 234q0 102 70 160q51 42 105 42q55 0 115 -77t69 -171h2q37 81 90.5 149.5t84.5 68.5q26 0 69 -58q45 -63 58 -130h2q30 62 89 125t91 63q15 0 50 -44q43 -52 70 -124
q36 -92 36 -194q0 -89 -32 -167q-26 -64 -59 -91q-48 -40 -66 -57q-38 -34 -62 -64q-16 18 -79 54q-71 40 -102 40q-15 0 -161 -94q-18 23 -99 55q-86 33 -143 33q-29 0 -63 -46zM494 292q0 21 -28 40q42 18 77 51q20 -44 54 -75q-6 -1 -69 -46q-41 -29 -105 -29h-52
q-24 -61 -53 -101q5 -1 110 -41q85 -32 124 -32q45 0 74 60q30 64 30 173q0 121 -51 240q-47 110 -83 110q-18 0 -53 -60q-37 -65 -63 -149q0 -5 1 -12v-12q0 -68 -28 -158q115 0 115 41zM966 294q0 103 -31 191q-24 70 -62 117q-32 40 -50 40q-28 0 -70 -69
q-38 -64 -38 -89q13 -107 13 -124q0 -126 -51 -215q26 0 98.5 -41t85.5 -41q37 0 70 65q35 71 35 166zM353 359q0 129 -63 233t-139 104q-39 0 -66 -39q-30 -42 -30 -110q0 -126 87 -208q79 -74 199 -87q12 45 12 107z" />
    <glyph glyph-name="X" unicode="X" horiz-adv-x="741" 
d="M312 337l-18 49q-81 -20 -125 -49q-35 -22 -35 -39q0 -9 12 -24t22 -21q-37 -22 -70 -62q-33 45 -73 73q20 13 60 53q60 60 201 90q-59 165 -88 214q-19 33 -42 33q-21 0 -66 -31l-10 15q134 94 154 94q19 0 36 -38q24 -52 88 -254h2q81 186 130 265q12 20 96 38
q2 -1 2 -9q0 -55 45 -105q38 -43 57 -43q5 0 22 13l9 -10q-68 -57 -83 -57q-34 0 -81 57.5t-49 57.5q-21 0 -128 -227q32 4 82 4q233 0 233 -129q0 -78 -81.5 -192.5t-126.5 -114.5q-28 0 -61 62.5t-101 253.5q-58 -129 -131 -271q-48 -93 -142 -167q-81 -63 -118 -63
q-6 0 -16.5 20t-10.5 24t2 5q64 2 137 59q82 63 140 169q56 103 126 257zM677 294q0 112 -215 112q-48 0 -89 -5q125 -341 168 -341q22 0 77 84q59 90 59 150z" />
    <glyph glyph-name="Y" unicode="Y" horiz-adv-x="778" 
d="M206 18l14 -8q-21 -32 -21 -69q0 -52 45 -91q50 -44 134 -44q96 0 153.5 54.5t57.5 144.5q0 18 4 101q3 87 4 175l-2 2q-48 -96 -136 -188q-89 -95 -135 -95q-51 0 -71 115q-8 47 -12 154q-99 0 -158 56.5t-59 155.5q0 101 82 175q70 64 134 64q29 0 52 -73.5t23 -166.5
q0 -29 -1 -87.5t-1 -87.5q46 10 72 35q21 19 21 34q0 24 -28 41q49 23 76 62q25 -55 58 -84q-13 -3 -74 -50q-69 -53 -125 -62q8 -221 63 -221q27 0 79 58q57 63 95 146q46 100 46 193q0 -22 -7 216q22 0 60 25q30 19 44 34l6 -7q-31 -66 -31 -305q0 -59 2.5 -187t2.5 -191
q0 -124 -101 -195q-92 -65 -233 -65q-86 0 -151 32q-61 31 -61 66q0 27 79 138zM237 482q0 172 -75 172q-41 0 -80.5 -54.5t-39.5 -117.5q0 -92 56 -142q53 -47 142 -47q0 31 -1.5 93.5t-1.5 95.5z" />
    <glyph glyph-name="Z" unicode="Z" horiz-adv-x="667" 
d="M316 -20l-30 20q-4 72 -6 146q-23 30 -58 47q36 29 36 53q0 20 -25 39q-30 24 -77 24q-52 0 -95 -33q-52 -40 -52 -111q0 -122 133 -213q116 -80 228 -80q93 0 148 56q50 52 50 129q0 76 -42 151q-33 60 -84 106q-45 40 -66 40q-12 0 -21 -14l-10 8q117 166 117 190
q0 12 -14 20l-166 90q-25 14 -25 34q0 14 73 89l11 -9q-15 -16 -15 -26q0 -8 22 -24q19 -16 38 -25l132 -66q22 -11 22 -32q0 -36 -121 -181l2 -2q6 2 24 2q54 0 121 -92q74 -102 74 -215q0 -92 -72 -166q-78 -81 -190 -81q-125 0 -246 81q-141 96 -141 235q0 71 52 115
q48 42 118 42q64 0 114 -35q0 131 5 294l24 -18q-9 -86 -11 -290q10 -9 34 -40q19 -26 36 -37q-34 -19 -65 -55q4 -68 18 -166z" />
    <glyph glyph-name="bracketleft" unicode="[" horiz-adv-x="530" 
d="M35 420l56 56q2 76 10 102q7 21 31 42q131 114 224 114q61 0 99 -45q90 61 153 61q32 0 59 -13.5t27 -24.5q0 -10 -64 -89l-14 11q11 11 11 24q0 14 -25 31q-29 19 -66 19q-16 0 -43 -19.5t-44 -45.5q-27 -40 -27 -166q16 -1 67 -1q65 0 80 16l15 -10q-36 -39 -64 -54
q-11 -6 -99 -6q-5 -217 -20 -368q-10 -92 -26 -183q-13 -71 -13 -97l-23 -22q10 224 10 644q0 26 -11 26h-169q-5 -217 -20 -368q-10 -92 -26 -183q-13 -71 -13 -97l-23 -22q10 224 10 650q0 26 -11 26q-6 0 -38 -24zM170 476h174q0 74 10 110q6 21 18 35q10 11 10 24
q0 18 -24 32.5t-55 14.5q-46 0 -83 -34q-44 -40 -47 -108z" />
    <glyph glyph-name="backslash" unicode="\" horiz-adv-x="389" 
d="M66 726q136 -352 324 -710q-33 -6 -67 -22q-136 352 -324 710q33 6 67 22z" />
    <glyph glyph-name="bracketright" unicode="]" horiz-adv-x="500" 
d="M452 89l33 42l16 -12q-51 -60 -91 -119h-9q-6 25 -54 52q-41 24 -54 24q-8 0 -17 -9l-9 12q23 13 28 72q15 173 15 271l-142 -1q-5 -216 -20 -367q-10 -92 -26 -183q-13 -71 -13 -97l-22 -22q9 214 9 362q0 193 -4 258q-4 56 -14 56q-8 0 -32 -21l-11 13l55 56
q2 95 16 125t74 74q104 75 175 75q25 0 55.5 -12.5t30.5 -25.5q0 -8 -16 -25q-20 -19 -31 -54q-16 -55 -17 -157l95 2l13 18l16 -10q-17 -29 -45 -62l-79 -2l-14 -294q46 -33 89 -39zM169 474l141 1q-1 60 -9 76q21 7 45 33q29 32 29 63q0 28 -20.5 44.5t-53.5 16.5
q-43 0 -79 -34.5t-44 -77.5q-9 -50 -9 -122z" />
    <glyph glyph-name="asciicircum" unicode="^" horiz-adv-x="600" 
d="M448 285l-148 293l-148 -293h-60l181 365h54l181 -365h-60z" />
    <glyph glyph-name="underscore" unicode="_" horiz-adv-x="500" 
d="M0 -125v50h500v-50h-500z" />
    <glyph glyph-name="grave" unicode="`" 
d="M2 695l4 11q6 -2 15 -2q27 0 60 16q68 -99 111 -146l-11 -12q-52 36 -103 73q-56 40 -76 60z" />
    <glyph glyph-name="a" unicode="a" horiz-adv-x="426" 
d="M387 84l42 48l14 -12l-104 -126q-58 62 -65 153h-2q-69 -114 -129 -153l-8 6l7 8q-46 37 -78.5 100.5t-32.5 123.5q0 68 44 124q38 47 167 152q88 -73 141 -77q-49 -54 -49 -211q0 -119 53 -136zM97 279q0 -87 38 -145q30 -48 58 -48q23 0 45.5 46.5t26.5 112.5
q7 120 20 142q-22 7 -54 27q-28 17 -34 17q-23 0 -56 -37q-44 -47 -44 -115z" />
    <glyph glyph-name="b" unicode="b" horiz-adv-x="444" 
d="M39 410l-7 17l53 44v66q0 84 128 167q90 58 132 58q13 0 33 -13t20 -25l-53 -74l-10 8q4 10 4 16q0 14 -15 27t-39 13q-39 0 -78 -46q-46 -54 -51 -134l-10 -173h2q44 54 133 141h11q3 -15 12 -23q76 -65 97.5 -99.5t21.5 -90.5q0 -91 -52 -156q-68 -70 -135 -139l-12 8
l6 6q-85 77 -149 100l-8 -6l-14 8q26 46 26 302q0 24 -9 24q-8 0 -37 -26zM375 238q0 45 -28 82.5t-116 106.5q-29 -29 -57 -67q-29 -41 -29 -57v-109q0 -17 41 -57q47 -46 88 -46q36 0 66 38q35 43 35 109z" />
    <glyph glyph-name="c" unicode="c" horiz-adv-x="333" 
d="M187 -6l-12 6l4 6q-66 44 -109 100q-49 62 -49 114q0 76 43 141q29 44 85.5 91t62.5 56q55 -42 93 -94l6 5l9 -10q-29 -29 -97 -86l-11 13q13 7 13 20q0 16 -16 41q-19 29 -40 29q-25 0 -50 -31q-32 -39 -32 -102q0 -64 50 -133.5t84 -69.5q14 0 33 16t70 70l14 -12
q-87 -85 -151 -170z" />
    <glyph glyph-name="d" unicode="d" horiz-adv-x="444" 
d="M153 750l19 -14q-33 -23 -57 -49t-24 -37q0 -17 35 -50q40 -38 165 -136q89 -70 114 -103q21 -28 21 -67q0 -102 -110 -207q-59 -50 -118 -99l-10 6q4 5 4 12q0 2 -45 28q-53 31 -83 67q-45 53 -45 122q0 50 28 95q30 49 105 115l11 -10q-66 -68 -66 -139q0 -95 56 -154
q47 -49 98 -49q39 0 74 53t35 102q0 40 -20 73q-30 48 -110 109l-130 99q-58 44 -72.5 58t-14.5 26q0 23 140 149z" />
    <glyph glyph-name="e" unicode="e" horiz-adv-x="333" 
d="M327 174l14 -11q-64 -65 -77 -79q-47 -51 -77 -90l-11 6l4 6q-59 36 -100 86q-59 70 -59 144q0 89 86 180l100 92q55 -32 91 -103l14 8l7 -12q-76 -51 -219 -157l10 54h7q1 -8 9 -8q7 0 47.5 31t40.5 39q0 20 -15.5 46t-29.5 26q-28 0 -58 -41t-30 -89q0 -88 63 -159
q51 -59 83 -59q9 0 25 16z" />
    <glyph glyph-name="f" unicode="f" horiz-adv-x="278" 
d="M35 420l56 56q2 95 16 125t74 74q104 75 175 75q32 0 59 -13.5t27 -24.5q0 -10 -64 -89l-14 11q11 11 11 24q0 14 -25 31q-29 19 -66 19q-16 0 -43 -19.5t-44 -45.5q-27 -40 -27 -166q16 -1 67 -1q65 0 80 16l15 -10q-36 -39 -64 -54q-11 -6 -99 -6q-5 -217 -20 -368
q-10 -92 -26 -183q-13 -71 -13 -97l-23 -22q10 224 10 650q0 26 -11 26q-6 0 -38 -24z" />
    <glyph glyph-name="g" unicode="g" horiz-adv-x="444" 
d="M173 -6l-9 9q5 3 5 9q0 -2 -34 28q-39 33 -63 69q-34 52 -34 106q0 102 212 293q24 -24 73.5 -46.5t82.5 -22.5l4 -9q-40 -28 -40 -242q0 -37 4 -109t4 -97q0 -55 -55 -102q-76 -65 -220 -65q-126 0 -126 55q0 32 58 116l12 -10l-16 -26q1 -47 37 -76t103 -29
q73 0 101 37q24 31 25 109l2 151h-2q-16 -40 -124 -148zM296 190q6 144 34 194q-14 4 -64 26q-42 20 -58 20q-26 0 -67 -55q-43 -58 -43 -107q0 -65 52 -128q45 -56 74 -56q17 0 44 37.5t28 68.5z" />
    <glyph glyph-name="h" unicode="h" horiz-adv-x="481" 
d="M331 402l-61 31q-109 -140 -109 -193v-133q0 -16 14 -29q11 -11 17 -11q5 0 14 11l9 -8q-2 -3 -42 -46q-28 -30 -28 -36l-11 6q2 2 2 8q0 4 -24 23t-29 19q-4 0 -10 -6l-7 10q29 11 29 280v55q-1 32 -1 33q0 18 -9 18q-8 0 -32 -24l-12 11l51 52l1 56q1 46 19 77.5
t66 65.5q126 90 174 90q21 0 40 -11t19 -24q0 -19 -58 -77l-12 10q10 12 10 18q0 36 -44 36q-40 0 -96 -49q-25 -22 -33.5 -50.5t-10.5 -87.5l-7 -207h2q44 70 145 194l11 -6q-2 -4 -2 -9q0 -2 45 -29t50 -27q8 0 16 2l3 -11q-34 -16 -34 -185q0 -39 1 -114v-104
q0 -103 -51 -183q-43 -68 -96 -86l-10 21q78 51 78 187q0 64 3.5 174t3.5 163q0 49 6 95z" />
    <glyph glyph-name="i" unicode="i" horiz-adv-x="241" 
d="M198 79l25 33l14 -10q-23 -30 -70 -102q-63 48 -79 72t-16 65q0 114 15 255q-28 19 -41 34l-26 -22l-11 11q40 36 89 87q31 -34 80 -59v-9q-18 0 -24 -36q-16 -95 -16 -208q0 -48 8 -65q11 -22 52 -46zM108 539v0l-12 11q12 18 12 22q0 13 -44 44q38 25 61 67
q47 -36 47 -55q0 -13 -13 -31q-9 -12 -51 -58z" />
    <glyph glyph-name="j" unicode="j" horiz-adv-x="241" 
d="M32 404l-11 11q40 36 89 87q31 -34 80 -59v-9q-15 0 -21 -36l-6 -370q-2 -105 -31 -159q-31 -59 -117 -109l-7 22q50 46 65 97q21 69 21 235v278q-13 11 -36 34zM120 539v0l-12 11q12 18 12 22q0 13 -44 44q38 25 61 67q47 -36 47 -55q0 -13 -13 -31q-9 -12 -51 -58z" />
    <glyph glyph-name="k" unicode="k" horiz-adv-x="444" 
d="M41 421l51 52l1 56q1 46 19 77.5t66 65.5q126 90 174 90q21 0 40 -11t19 -24q0 -19 -58 -77l-12 10q10 12 10 18q0 36 -44 36q-40 0 -96 -49q-25 -22 -34 -52q-7 -26 -10 -86l-8 -191h2q125 172 149 172q2 0 44 -47t52 -47q5 0 9 3l6 -8q-50 -59 -160 -148l2 -2
q15 4 28 4q20 0 30 -11q6 -6 18 -30l52 -104q35 -71 51 -71q11 0 42 20l7 -11q-80 -62 -109 -62q-9 0 -17 17l-69 139q-29 57 -41.5 73t-32.5 16q-6 0 -14 -3l-4 11q64 35 141 124q-19 10 -43 41q-20 27 -28 27q-27 0 -70 -73.5t-43 -117.5v-141q0 -16 14 -29q11 -11 17 -11
q5 0 14 11l9 -8q-2 -3 -42 -46q-28 -30 -28 -36l-11 6q2 2 2 8q0 4 -24 23t-29 19q-4 0 -10 -6l-7 10q29 11 29 280v55q-1 32 -1 33q0 18 -9 18q-8 0 -32 -24z" />
    <glyph glyph-name="l" unicode="l" horiz-adv-x="241" 
d="M48 410l-10 11q13 16 48 47q0 87 10.5 120.5t100.5 103.5t127 70q18 0 39.5 -12.5t21.5 -24.5q0 -8 -56 -78l-13 9q9 13 9 23t-12.5 19.5t-33.5 9.5q-22 0 -54 -27q-39 -34 -52 -83q-20 -78 -20 -292q0 -66 1.5 -125.5t1.5 -64.5q0 -13 16 -28t25 -15q8 0 46 38l13 -11
q-46 -48 -94 -112l-12 6q3 3 3 8q0 7 -31 31.5t-38 24.5q-9 0 -14 -3l-8 9q17 12 21 57q4 53 4 283q0 28 -10 28q-7 0 -29 -22z" />
    <glyph glyph-name="m" unicode="m" horiz-adv-x="685" 
d="M332 382l-53 34q-99 -151 -116 -202q-6 -30 -6 -89q0 -40 5 -79q-40 -19 -81 -52q15 66 26 394q-14 8 -44 33l-36 -38l-14 12q58 58 93 107q35 -43 82 -61q-18 -63 -27 -154l2 -2q81 126 161 223l12 -10l-8 -12q40 -40 57 -51q12 -7 28 -7v-12q-12 0 -16 -17
q-7 -23 -17 -117l2 -2q91 142 161 228l12 -10l-8 -12q43 -41 61 -51q13 -7 32 -7v-12q-12 0 -15 -11q-29 -107 -29 -221q0 -81 58 -111l38 45l14 -13q-64 -64 -86 -111q-48 32 -66 64.5t-18 95.5t17 228l-53 34q-82 -115 -118 -200q-6 -60 -6 -97q0 -40 8 -65
q-45 -22 -78 -60z" />
    <glyph glyph-name="n" unicode="n" horiz-adv-x="481" 
d="M342 382l-55 39q-104 -139 -125 -233q-6 -28 -10 -144q-46 -25 -75 -50q15 66 26 394q-14 8 -44 33l-36 -38l-14 12q58 58 93 107q35 -43 82 -61q-11 -15 -33 -196h2q22 52 86.5 147.5t92.5 115.5l10 -9l-5 -9l81 -61h7v-18h-8q-10 -15 -21 -87q-11 -76 -11 -144
q0 -44 12.5 -69t45.5 -42l40 42l14 -11q-21 -18 -88 -106q-51 32 -67.5 65.5t-16.5 103.5q0 90 17 219z" />
    <glyph glyph-name="o" unicode="o" horiz-adv-x="444" 
d="M220 -6l-11 6q4 4 4 6q-56 37 -88 57q-104 65 -104 156q0 67 50 137q43 58 149 152l11 -6q-4 -4 -4 -6q62 -40 89 -56q107 -65 107 -149q0 -113 -203 -297zM357 232q0 85 -81 145q-62 46 -103 46q-23 0 -52 -34q-34 -42 -34 -95q0 -107 79 -165q53 -39 92 -39q37 0 68 43
t31 99z" />
    <glyph glyph-name="p" unicode="p" horiz-adv-x="444" 
d="M20 402l-12 6q31 35 78 100q44 -37 59 -68q17 -34 17 -94v-10q-1 -6 -1 -10h2q30 58 57 94q17 23 72 88l11 -6q-2 -2 -2 -5q0 -9 33 -41q43 -41 62 -69q33 -48 33 -94q0 -75 -80 -179l-104 -126l-12 6q3 4 3 11q0 13 -81 56q0 -30 -2.5 -86.5t-2.5 -83.5q0 -14 1 -41v-40
q-43 -24 -84 -54q12 62 23 326q-1 0 -5 1h-6q-13 0 -24 -19l-12 6q22 33 49 60q0 16 2 65q2 40 2 61q0 65 -12 113q-13 53 -34 53q-14 0 -30 -20zM369 226q0 53 -48 121q-44 63 -68 63q-30 0 -62 -86q-34 -93 -34 -197q23 -8 68 -35q38 -24 47 -24q20 0 58.5 58.5t38.5 99.5
z" />
    <glyph glyph-name="q" unicode="q" horiz-adv-x="444" 
d="M171 -12l-12 6q3 6 3 10q0 2 -34 30q-42 34 -65 67q-34 49 -34 102q0 56 50 126q32 45 97 110q59 58 64 69h12q0 -11 6 -16q22 -17 65 -38q48 -23 67 -23q9 0 13 3l3 -12q-20 -10 -31 -56q-20 -87 -20 -392q0 -103 9 -159q-14 -6 -83 -55q12 106 14 374l-2 2
q-50 -71 -122 -148zM95 249q0 -60 49 -115q44 -50 74 -50q21 0 78 111q0 104 2.5 135.5t11.5 47.5q-29 7 -105 49q-63 -64 -71 -75q-39 -51 -39 -103z" />
    <glyph glyph-name="r" unicode="r" horiz-adv-x="315" 
d="M207 76l35 42l14 -13q-55 -64 -87 -111h-13q-1 30 -80 77h-9l-2 10l11 4q26 76 26 229q0 77 -48 105l-44 -44l-11 14q72 68 112 113l9 -8l-7 -9q16 -8 35 -40.5t19 -55.5v-8q-1 -5 -1 -7h2q5 19 41.5 66.5t52.5 58.5q35 -32 77 -55q-36 -42 -60 -100l-17 8q7 11 7 18
q0 15 -13.5 29.5t-33.5 19.5q-40 -47 -52 -108q-10 -51 -14 -193q25 -28 51 -42z" />
    <glyph glyph-name="s" unicode="s" horiz-adv-x="259" 
d="M47 407l-11 13l55 56q2 95 16 125t74 74q104 75 175 75q32 0 59 -13.5t27 -24.5q0 -10 -64 -89l-11 9q8 14 8 26q0 14 -27 32t-58 18q-23 0 -52 -22q-25 -19 -41.5 -43.5t-20.5 -66.5q-4 -29 -7 -154q-6 -217 -21 -368q-9 -92 -25 -183q-13 -70 -13 -97l-22 -22
q9 214 9 362q0 193 -4 258q-4 56 -14 56q-8 0 -32 -21z" />
    <glyph glyph-name="t" unicode="t" horiz-adv-x="296" 
d="M241 89l33 42l16 -12q-51 -60 -91 -119h-10q-6 25 -53 52q-41 24 -54 24q-8 0 -17 -9l-9 12q22 13 27 72q13 163 13 244q0 33 -20 33q-14 0 -29 -21l-14 12q25 37 44 59q8 -2 13 -2q6 0 6 32q0 28 -7 46q52 20 77 78h12q-12 -88 -18 -158l101 4l13 18l16 -10
q-17 -29 -45 -62l-85 -4l-8 -292q46 -33 89 -39z" />
    <glyph glyph-name="u" unicode="u" horiz-adv-x="463" 
d="M422 71l44 48l15 -11q-45 -47 -94 -114q-40 51 -87 77q19 37 19 112l-2 2q-43 -71 -150 -185l-11 8l5 5q-19 20 -49.5 43t-37.5 23q-4 0 -6 -2l-5 9q44 18 44 208q0 92 -58 120l-32 -32l-12 13q54 53 95 107l12 -13l-4 -6q39 -31 54 -76q11 -34 11 -92q0 -34 -9 -109.5
t-14 -83.5q27 -15 57 -48q75 76 101 139q17 41 17 153q0 41 -6 85q34 19 87 57q-27 -175 -27 -319q0 -58 3 -81z" />
    <glyph glyph-name="v" unicode="v" horiz-adv-x="444" 
d="M28 399l-18 12q47 48 81 97q58 -61 70 -171h2q29 50 125 171q51 -65 101 -129q31 -45 31 -92q0 -60 -37 -121q-24 -39 -78.5 -100t-68.5 -85l-10 7q1 2 1 5q0 8 -67 50q-70 44 -93 44q-7 0 -9 -3l-7 8q44 53 44 177q0 59 -18 110q-15 43 -25 43q-7 0 -24 -23zM366 227
q0 37 -37 98.5t-82 93.5q-29 -35 -55.5 -78t-28.5 -57q-16 -100 -36 -135q58 -24 102 -58q34 -28 39 -28q20 0 59 60.5t39 103.5z" />
    <glyph glyph-name="w" unicode="w" horiz-adv-x="630" 
d="M22 402l-14 10l83 102q57 -44 72 -142h2q29 48 129 145q64 -64 75 -150h2q23 50 106 145q71 -69 102 -118q32 -54 32 -107q0 -62 -38 -123q-23 -36 -78 -95q-52 -55 -66 -81l-11 6q2 4 2 10q0 14 -58 51q-55 34 -70 35q-83 -79 -91 -102l-10 6q1 4 1 11q0 4 -49 40
q-52 38 -69 38q-6 0 -12 -4l-8 9q14 19 27 63q16 55 16 114q0 70 -18 121q-15 42 -29 42q-8 0 -28 -26zM303 265q0 104 -54 175q-58 -61 -80 -122q0 -101 -44 -174q39 -21 80 -49q27 -20 35 -20q15 0 36 47q27 59 27 143zM551 233q0 104 -115 198q-47 -72 -60 -114
q-3 -84 -45 -162q60 -29 101 -57q29 -20 32 -20q17 0 49 46q38 53 38 109z" />
    <glyph glyph-name="x" unicode="x" horiz-adv-x="389" 
d="M50 223l33 52l54 2q0 51 -25 101q-24 46 -43 46q-8 0 -46 -38l-10 12q68 72 102 110l11 -6q-2 -6 -2 -8q0 1 28 -36q29 -40 39 -95h2q25 53 121 145l8 -6q-4 -4 -4 -7q0 -6 24 -23.5t33 -17.5q8 0 12 1v-13q-11 -1 -37 -44l-28 -46l-10 6q13 20 13 36q0 11 -10.5 21
t-26.5 10q-26 0 -50 -30q-34 -41 -35 -116l55 2q11 0 24 19l12 -4l-35 -58l-56 2q9 -79 46 -124q27 -33 46 -33q12 0 86 88l11 -15q-41 -55 -147 -168l-8 9q5 3 5 7q0 -2 -30.5 38t-34.5 63h-2q-41 -121 -107 -204q-61 -76 -125 -98l9 48q49 0 92 65q93 139 93 324h-51
q-11 0 -21 -21z" />
    <glyph glyph-name="y" unicode="y" horiz-adv-x="463" 
d="M21 383l-13 10q65 73 96 115l9 -6q-2 -4 -2 -9l17 -18q20 -21 32 -53q17 -46 17 -116q0 -50 -10 -114q-9 -58 -17 -70q29 -15 61 -44q29 26 66 81q35 52 45 83q0 118 -2 148q-2 39 -11 57q69 38 94 67l9 -6q-24 -85 -24 -302q0 -40 1 -103.5t1 -90.5q0 -82 -69 -137
q-76 -60 -204 -60q-161 0 -161 57q0 18 10.5 37t54.5 83l13 -11q-18 -25 -18 -46q0 -35 38 -60q44 -30 123 -30q64 0 104 55q39 52 40 130l2 148h-2q-34 -51 -158 -186l-9 8q5 5 5 8q0 5 -33 34.5t-40 29.5q-12 0 -18 -2v11q14 0 24 46q13 60 13 184q0 48 -20 79
q-15 24 -27 24q-9 0 -37 -31z" />
    <glyph glyph-name="z" unicode="z" horiz-adv-x="370" 
d="M44 407l-13 10l94 91l12 -6q-3 -4 -3 -8q0 -5 70 -40.5t82 -35.5q5 0 11 6l10 -7q-86 -114 -133 -168q2 0 7 1t8 1q39 0 95 -57q67 -68 67 -151q0 -101 -88 -167q-83 -61 -196 -61q-67 0 -110 20q-36 17 -36 36q0 23 64 120l15 -9q-19 -24 -19 -44q0 -34 34 -59
q38 -28 98 -28q87 0 134 52q38 43 38 102q0 74 -67 136q-55 50 -86 50q-9 0 -17 -10l-11 9q70 86 130 176q-130 65 -152 65q-14 0 -38 -24z" />
    <glyph glyph-name="braceleft" unicode="{" horiz-adv-x="333" 
d="M127 400v142q0 91 39 125q31 27 107 27v-12q-45 -12 -62.5 -43.5t-17.5 -90.5v-132q0 -63 -15 -91q-17 -35 -66 -48v-2q49 -13 66 -48q15 -28 15 -91v-132q0 -59 17 -89q18 -33 63 -45v-12q-76 0 -107 27q-39 34 -39 125v142q0 55 -15.5 82.5t-59.5 41.5q44 14 60 43
q15 26 15 81z" />
    <glyph glyph-name="bar" unicode="|" horiz-adv-x="222" 
d="M81 -12v744h60v-744h-60z" />
    <glyph glyph-name="braceright" unicode="}" horiz-adv-x="333" 
d="M140 416v132q0 59 -17.5 90.5t-62.5 43.5v12q76 0 107 -27q39 -34 39 -125v-142q0 -55 15 -81q16 -29 60 -43q-44 -14 -59.5 -41.5t-15.5 -82.5v-142q0 -91 -39 -125q-31 -27 -107 -27v12q45 12 63 45q17 30 17 89v132q0 63 15 91q17 35 66 48v2q-49 13 -66 48
q-15 28 -15 91z" />
    <glyph glyph-name="asciitilde" unicode="~" horiz-adv-x="600" 
d="M105 187v0l-36 42q39 86 125 86q34 0 113 -32t100 -32q42 0 88 68l36 -42q-39 -86 -125 -86q-34 0 -113 32t-100 32q-42 0 -88 -68z" />
    <glyph glyph-name="exclamdown" unicode="&#xa1;" horiz-adv-x="759" 
d="M324 428l40 41v60q0 46 18 77t67 66q126 90 174 90q21 0 40 -11t19 -24q0 -19 -58 -77l-12 10q10 12 10 18q0 36 -44 36q-40 0 -96 -49q-25 -22 -33.5 -50.5t-10.5 -87.5l-7 -207h2q44 70 145 194l11 -6q-2 -4 -2 -9q0 -2 45 -29t50 -27q8 0 16 2l3 -11q-34 -16 -34 -185
q0 -39 1 -114v-104q0 -103 -51 -183q-43 -68 -96 -86l-10 21q78 51 78 187q0 64 3.5 174t3.5 163q0 49 6 95l-61 31q-109 -140 -109 -193v-133q0 -16 14 -29q11 -11 17 -11q5 0 14 11l9 -8q-2 -3 -42 -46q-28 -30 -28 -36l-11 6q2 2 2 8q0 4 -24 23t-29 19q-4 0 -10 -6
l-7 10q22 8 27 140q-113 -109 -177 -194l-12 6l4 6q-66 44 -109 100q-49 62 -49 114q0 76 43 141q29 44 85.5 91t62.5 56q55 -42 93 -94l6 5l9 -10q-29 -29 -97 -86l-11 13q13 7 13 20q0 16 -16 41q-19 29 -40 29q-25 0 -50 -31q-32 -39 -32 -102q0 -64 50 -133.5t84 -69.5
q23 0 104 85q30 31 36 65q5 29 5 149q0 41 -9 41q-10 0 -22 -13z" />
    <glyph glyph-name="cent" unicode="&#xa2;" horiz-adv-x="833" 
d="M57 6q90 0 202 115q85 89 153 208q-32 7 -90 7q-190 0 -288 -87q-72 -65 -72 -145q0 -37 19 -63q25 -35 76 -35zM531 732l7 18q113 -29 128 -48q7 -9 29 -205q26 -230 48 -334l7 -33q13 -62 32 -62q10 0 44 45l14 -12q-52 -74 -68.5 -93.5t-28.5 -19.5q-57 0 -82 155
q-36 218 -63 418q-21 -1 -51 -60q-55 -111 -85 -159q68 -9 92 -23q14 -17 56 -51q-39 -39 -56 -73q-42 32 -76 47q21 9 21 39t-50 40q-82 -132 -180 -223q-118 -110 -212 -110q-59 0 -89 41q-24 32 -24 75q0 81 77 152q105 98 307 98q50 0 96 -6q42 81 68 147q9 27 19 53
q11 15 86 25q-11 86 -28 122q-14 29 -38 37zM506 770l-12 11q12 18 12 22q0 13 -44 44q38 25 61 67q47 -36 47 -55q0 -13 -13 -31q-9 -12 -51 -58zM681 770l-12 11q12 18 12 22q0 13 -44 44q38 25 61 67q47 -36 47 -55q0 -13 -13 -31q-9 -12 -51 -58z" />
    <glyph glyph-name="sterling" unicode="&#xa3;" horiz-adv-x="833" 
d="M307 758l25 -20q-18 -61 -25 -140h2q14 22 84.5 66.5t87.5 67.5q16 -14 112.5 -53t142.5 -80q70 -63 70 -157q0 -160 -154 -314q-108 -42 -195 -134q-214 41 -317 119q-113 85 -113 225q0 118 77 204q62 70 191 133q4 39 12 83zM315 206l-30 14q-8 82 -8 120q0 31 1 67.5
t1 45.5q-10 35 -61 69q42 8 65 49q2 14 8 76q-192 -71 -192 -278q0 -127 133 -216q113 -75 221 -75q120 0 204 109q77 99 77 217q0 91 -93 164.5t-213 73.5q-43 0 -76.5 -27t-33.5 -49q0 -35 46 -58q-38 -20 -63 -47q0 -170 14 -255zM338 770l-12 11q12 18 12 22
q0 13 -44 44q38 25 61 67q47 -36 47 -55q0 -13 -13 -31q-9 -12 -51 -58zM513 770l-12 11q12 18 12 22q0 13 -44 44q38 25 61 67q47 -36 47 -55q0 -13 -13 -31q-9 -12 -51 -58z" />
    <glyph glyph-name="currency" unicode="&#xa4;" horiz-adv-x="480" 
d="M380 498l50 50l36 -36l-50 -50q49 -60 49 -140t-49 -140l50 -50l-36 -36l-50 50q-62 -49 -140 -49t-140 49l-50 -50l-36 36l50 50q-49 60 -49 140t49 140l-50 50l36 36l50 -50q62 49 140 49t140 -49zM405 322q0 73 -47.5 122t-117.5 49t-117.5 -49t-47.5 -122t47.5 -122
t117.5 -49t117.5 49t47.5 122z" />
    <glyph glyph-name="yen" unicode="&#xa5;" horiz-adv-x="574" 
d="M233 173l3 77l-172 -4l21 34l148 -2q-54 143 -99 215q-36 59 -57 59q-15 0 -61 -29l-11 15q123 89 149 89q12 0 36 -49q31 -65 104 -257q110 271 152 290q35 16 55 16q5 0 13 -41q7 -37 32 -69q22 -29 38 -29q7 0 27 9l7 -14q-74 -37 -89 -37q-21 0 -54 42.5t-38 42.5
q-21 0 -134 -253l172 2l-22 -32l-149 2v-77l171 2l-22 -32l-149 2l3 -136q-44 -21 -86 -53q11 173 11 189l-168 -4l21 34z" />
    <glyph glyph-name="brokenbar" unicode="&#xa6;" horiz-adv-x="222" 
d="M81 -12v278h60v-278h-60zM81 454v278h60v-278h-60z" />
    <glyph glyph-name="section" unicode="&#xa7;" horiz-adv-x="481" 
d="M12 64l-13 11q69 105 100 105q22 0 98.5 -50.5t87.5 -50.5q22 0 48 30.5t26 55.5q0 40 -72 63l-181 57q-68 21 -68 66q0 57 69 121q-39 16 -39 53q0 70 183 207q98 -68 147 -68q13 0 31 28l13 -8q-58 -92 -82 -92t-79.5 33.5t-68.5 33.5q-19 0 -48.5 -27t-29.5 -51
q0 -35 48 -51l206 -70q66 -22 66 -67q0 -33 -60 -124q31 -13 31 -49t-37 -85q-42 -54 -153 -156l-11 9q9 8 9 17q0 13 -67 55t-97 42q-28 0 -57 -38zM313 407l-184 58q-25 -26 -25 -59q0 -35 57 -55l213 -74q20 38 20 56q0 48 -81 74z" />
    <glyph glyph-name="dieresis" unicode="&#xa8;" 
d="M23 539v0l-12 11q12 18 12 22q0 13 -44 44q38 25 61 67q47 -36 47 -55q0 -13 -13 -31q-9 -12 -51 -58zM197 539v0l-12 11q12 18 12 22q0 13 -44 44q38 25 61 67q47 -36 47 -55q0 -13 -13 -31q-9 -12 -51 -58z" />
    <glyph glyph-name="copyright" unicode="&#xa9;" horiz-adv-x="800" 
d="M563 268h18l-20 -83q-2 -7 -41 -18q-46 -13 -97 -13q-100 0 -160 50q-67 56 -67 164q0 89 67 148.5t166 59.5q52 0 96 -15q38 -13 38 -23v-79h-18q-8 99 -120 99q-76 0 -116.5 -51.5t-40.5 -133.5q0 -90 40 -143q43 -58 125 -58q88 0 130 96zM28 360q0 154 109 263
t263 109t263 -109t109 -263t-109 -263t-263 -109t-263 109t-109 263zM718 360q0 138 -91.5 231t-226.5 93t-226.5 -93t-91.5 -231t91.5 -231t226.5 -93t226.5 93t91.5 231z" />
    <glyph glyph-name="ordfeminine" unicode="&#xaa;" horiz-adv-x="277" 
d="M257 394l27 29l9 -7l-68 -75q-40 36 -45 95h-2q-20 -41 -92 -99l-5 4l5 4q-69 60 -69 128q0 61 26 85q39 36 121 92q27 -22 42 -31q25 -15 48 -17q-32 -31 -32 -126q0 -73 35 -82zM165 461q6 46 22 108q-17 6 -38 19q-17 10 -24 10q-13 0 -43 -38q-17 -21 -17 -54
q0 -41 26 -79q22 -32 32 -32q4 0 17 18q17 22 25 48z" />
    <glyph glyph-name="guillemotleft" unicode="&#xab;" horiz-adv-x="426" 
d="M107 291q40 -36 120 -111q-20 -15 -52 -42q-32 37 -63 74q-40 44 -73 73q52 53 77 80q40 45 65 81q18 -17 46 -31q-16 -12 -55 -54q-49 -54 -65 -70zM235 291q40 -36 120 -111q-20 -15 -52 -42q-32 37 -63 74q-40 44 -73 73q52 53 77 80q40 45 65 81q18 -17 46 -31
q-16 -12 -55 -54q-49 -54 -65 -70z" />
    <glyph glyph-name="logicalnot" unicode="&#xac;" horiz-adv-x="600" 
d="M47 321v60h506v-274h-60v214h-446z" />
    <glyph glyph-name="registered" unicode="&#xae;" horiz-adv-x="800" 
d="M28 360q0 154 109 263t263 109t263 -109t109 -263t-109 -263t-263 -109t-263 109t-109 263zM718 360q0 138 -91.5 231t-226.5 93t-226.5 -93t-91.5 -231t91.5 -231t226.5 -93t226.5 93t91.5 231zM279 210v293q0 26 -8.5 33t-44.5 10v18h188q53 0 88 -23q39 -26 39 -74
q0 -86 -95 -113q75 -116 104 -146q22 -23 50 -23v-18h-81q-17 0 -36 25q-22 28 -100 152h-38v-134q0 -23 53 -25v-18h-172v18q53 2 53 25zM345 362h53q29 0 51 20q26 25 26 72q0 92 -81 92h-49v-184z" />
    <glyph glyph-name="degree" unicode="&#xb0;" horiz-adv-x="400" 
d="M295 507q0 44 -28.5 72.5t-66.5 28.5t-65 -28q-30 -29 -30 -73t30 -73q27 -28 65 -28t66.5 28.5t28.5 72.5zM57 507q0 59 42 101t101 42t101 -42t42 -101t-42 -101t-101 -42t-101 42t-42 101z" />
    <glyph glyph-name="plusminus" unicode="&#xb1;" horiz-adv-x="600" 
d="M270 332v174h60v-174h223v-60h-223v-174h-60v174h-223v60h223zM47 0v60h506v-60h-506z" />
    <glyph glyph-name="twosuperior" unicode="&#xb2;" horiz-adv-x="253" 
d="M42 585l-6 8l31 49q29 8 58 8q94 0 94 -55q0 -38 -72 -125q-63 -76 -98 -101l2 -3q31 24 52 24q10 0 41.5 -3.5t48.5 -3.5q21 0 43 24l8 -5q-37 -48 -47.5 -57.5t-20.5 -9.5q-8 0 -58 9q-56 10 -73 10q-10 0 -36 -19l-20 6q97 106 130 149q40 51 40 74q0 38 -62 38
q-40 0 -55 -17z" />
    <glyph glyph-name="threesuperior" unicode="&#xb3;" horiz-adv-x="265" 
d="M56 446l-15 10q100 106 100 115q0 7 -28 19t-49 12q-12 0 -28 -19l-7 9q42 58 59 58q13 0 61 -18q52 -19 52 -29q0 -15 -111 -114l2 -1q18 14 34 14q46 0 80 -19q40 -22 40 -61q0 -53 -66 -125q-71 -78 -143 -78q-26 0 -43 7q-13 5 -13 10q0 4 37 45q0 -20 48 -20
q40 0 80 43.5t40 80.5q0 69 -109 69q-12 0 -21 -8z" />
    <glyph glyph-name="acute" unicode="&#xb4;" 
d="M59 562l-11 12q43 47 111 146q33 -16 60 -16q9 0 15 2l4 -11q-23 -23 -179 -133z" />
    <glyph glyph-name="paragraph" unicode="&#xb6;" horiz-adv-x="600" 
d="M513 660h69l-49 -36l-22 2q-2 -17 -2 -48v-440q0 -41 2 -106q2 -81 2 -104l-48 -33q14 173 14 315v418q-22 2 -62 5q-2 -19 -2 -55v-440q0 -41 2 -106q2 -81 2 -104l-48 -33q14 173 14 315v39q-139 19 -220 79q-100 73 -100 201q0 78 41 107q34 24 114 24h165v72l42 30
q-5 -34 -9 -102h61v72l42 30q-6 -45 -8 -102zM385 273v361q-25 2 -58 2q-70 0 -97 -25q-31 -29 -31 -108q0 -77 32 -133q47 -80 154 -97z" />
    <glyph glyph-name="cedilla" unicode="&#xb8;" 
d="M116 -213l-18 16q53 56 53 77q0 19 -66 45q38 45 69 93h27l-29 -41q59 -33 59 -54q0 -34 -95 -136z" />
    <glyph glyph-name="onesuperior" unicode="&#xb9;" horiz-adv-x="205" 
d="M98 592l-72 -34q10 16 12 39q7 3 122 53q-14 -104 -14 -205q0 -53 5 -91q-41 -14 -67 -32q14 112 14 270z" />
    <glyph glyph-name="ordmasculine" unicode="&#xba;" horiz-adv-x="313" 
d="M156 341l-10 4q1 1 1 4l-32 16q-38 19 -60 41q-32 32 -32 70q0 41 30 80q28 34 102 94l10 -4q-1 -1 -2 -4q0 -1 5 -4q122 -62 122 -119q0 -44 -50 -100q-24 -27 -84 -78zM242 484q0 46 -53 81q-41 27 -65 27q-13 0 -31 -20q-22 -23 -22 -51q0 -61 51 -94q33 -23 57 -23
q23 0 43 25t20 55z" />
    <glyph glyph-name="guillemotright" unicode="&#xbb;" horiz-adv-x="426" 
d="M173 293q-40 36 -120 111q21 15 52 42q32 -37 63 -73q40 -45 73 -74q-52 -53 -77 -80q-40 -45 -65 -81q-18 17 -46 31q16 12 55 55q49 53 65 69zM301 293q-40 36 -120 111q21 15 52 42q32 -37 63 -73q40 -45 73 -74q-52 -53 -77 -80q-40 -45 -65 -81q-18 17 -46 31
q16 12 55 55q49 53 65 69z" />
    <glyph glyph-name="onequarter" unicode="&#xbc;" horiz-adv-x="721" 
d="M399 72l-3 11q53 65 74 95q38 55 58 111q16 5 72 30q-8 -113 -11 -198q83 0 83 -5q0 -9 -33 -64l-6 3q4 6 4 8q0 13 -48 13q-1 -5 -1 -56q0 -14 1 -48v-52q-28 -11 -61 -34q9 50 13 190q-101 0 -142 -4zM541 119v117h-2q-42 -78 -83 -119zM485 640q-178 -334 -304 -656
q-20 10 -56 20q178 334 304 656q20 -10 56 -20zM98 592l-72 -34q10 16 12 39q7 3 122 53q-14 -104 -14 -205q0 -53 5 -91q-41 -14 -67 -32q14 112 14 270z" />
    <glyph glyph-name="onehalf" unicode="&#xbd;" horiz-adv-x="721" 
d="M481 244l-6 8l31 49q29 8 58 8q94 0 94 -55q0 -38 -72 -125q-63 -76 -98 -101l2 -3q31 24 52 24q10 0 41.5 -3.5t48.5 -3.5q21 0 43 24l8 -5q-37 -48 -47.5 -57.5t-20.5 -9.5q-8 0 -58 9q-56 10 -73 10q-10 0 -36 -19l-20 6q97 106 130 149q40 51 40 74q0 38 -62 38
q-40 0 -55 -17zM503 640q-178 -334 -304 -656q-20 10 -56 20q178 334 304 656q20 -10 56 -20zM98 592l-72 -34q10 16 12 39q7 3 122 53q-14 -104 -14 -205q0 -53 5 -91q-41 -14 -67 -32q14 112 14 270z" />
    <glyph glyph-name="threequarters" unicode="&#xbe;" horiz-adv-x="721" 
d="M399 72l-3 11q53 65 74 95q38 55 58 111q16 5 72 30q-8 -113 -11 -198q83 0 83 -5q0 -9 -33 -64l-6 3q4 6 4 8q0 13 -48 13q-1 -5 -1 -56q0 -14 1 -48v-52q-28 -11 -61 -34q9 50 13 190q-101 0 -142 -4zM541 119v117h-2q-42 -78 -83 -119zM74 446l-15 10q100 106 100 115
q0 7 -28 19t-49 12q-12 0 -28 -19l-7 9q42 58 59 58q13 0 61 -18q52 -19 52 -29q0 -15 -111 -114l2 -1q18 14 34 14q46 0 80 -19q40 -22 40 -61q0 -53 -66 -125q-71 -78 -143 -78q-26 0 -43 7q-13 5 -13 10q0 4 37 45q0 -20 48 -20q40 0 80 43.5t40 80.5q0 69 -109 69
q-12 0 -21 -8zM529 640q-178 -334 -304 -656q-20 10 -56 20q178 334 304 656q20 -10 56 -20z" />
    <glyph glyph-name="questiondown" unicode="&#xbf;" horiz-adv-x="722" 
d="M325 428l38 40l1 61q1 46 19 77.5t66 65.5q126 90 174 90q21 0 40 -11t19 -24q0 -19 -58 -77l-12 10q10 12 10 18q0 36 -44 36q-40 0 -96 -49q-25 -22 -34 -52q-7 -26 -10 -86l-8 -191h2q125 172 149 172q2 0 44 -47t52 -47q5 0 9 3l6 -8q-50 -59 -160 -148l2 -2
q15 4 28 4q20 0 30 -11q6 -6 18 -30l52 -104q35 -71 51 -71q11 0 42 20l7 -11q-80 -62 -109 -62q-9 0 -17 17l-69 139q-29 57 -41.5 73t-32.5 16q-6 0 -14 -3l-4 11q64 35 141 124q-19 10 -43 41q-20 27 -28 27q-27 0 -70 -73.5t-43 -117.5v-141q0 -16 14 -29q11 -11 17 -11
q5 0 14 11l9 -8q-2 -3 -42 -46q-28 -30 -28 -36l-11 6q2 2 2 8q0 4 -24 23t-29 19q-4 0 -10 -6l-7 14q16 7 20 28t4 105q-118 -117 -174 -191l-12 6l4 6q-66 44 -109 100q-49 62 -49 114q0 76 43 141q29 44 85.5 91t62.5 56q55 -42 93 -94l6 5l9 -10q-29 -29 -97 -86l-11 13
q13 7 13 20q0 16 -16 41q-19 29 -40 29q-25 0 -50 -31q-32 -39 -32 -102q0 -64 50 -133.5t84 -69.5q23 0 104 85q30 31 36 65q5 29 5 149q0 41 -9 41t-23 -12z" />
    <glyph glyph-name="Agrave" unicode="&#xc0;" horiz-adv-x="833" 
d="M57 6q90 0 202 115q85 89 153 208q-32 7 -90 7q-190 0 -288 -87q-72 -65 -72 -145q0 -37 19 -63q25 -35 76 -35zM531 732l7 18q113 -29 128 -48q7 -9 29 -205q26 -230 48 -334l7 -33q13 -62 32 -62q10 0 44 45l14 -12q-52 -74 -68.5 -93.5t-28.5 -19.5q-57 0 -82 155
q-36 218 -63 418q-21 -1 -51 -60q-55 -111 -85 -159q68 -9 92 -23q14 -17 56 -51q-39 -39 -56 -73q-42 32 -76 47q21 9 21 39t-50 40q-82 -132 -180 -223q-118 -110 -212 -110q-59 0 -89 41q-24 32 -24 75q0 81 77 152q105 98 307 98q50 0 96 -6q42 81 68 147q9 27 19 53
q11 15 86 25q-11 86 -28 122q-14 29 -38 37zM479 930l4 11q6 -2 15 -2q27 0 60 16q68 -99 111 -146l-11 -12q-52 36 -103 73q-56 40 -76 60z" />
    <glyph glyph-name="Aacute" unicode="&#xc1;" horiz-adv-x="833" 
d="M57 6q90 0 202 115q85 89 153 208q-32 7 -90 7q-190 0 -288 -87q-72 -65 -72 -145q0 -37 19 -63q25 -35 76 -35zM531 732l7 18q113 -29 128 -48q7 -9 29 -205q26 -230 48 -334l7 -33q13 -62 32 -62q10 0 44 45l14 -12q-52 -74 -68.5 -93.5t-28.5 -19.5q-57 0 -82 155
q-36 218 -63 418q-21 -1 -51 -60q-55 -111 -85 -159q68 -9 92 -23q14 -17 56 -51q-39 -39 -56 -73q-42 32 -76 47q21 9 21 39t-50 40q-82 -132 -180 -223q-118 -110 -212 -110q-59 0 -89 41q-24 32 -24 75q0 81 77 152q105 98 307 98q50 0 96 -6q42 81 68 147q9 27 19 53
q11 15 86 25q-11 86 -28 122q-14 29 -38 37zM546 797l-11 12q43 47 111 146q33 -16 60 -16q9 0 15 2l4 -11q-23 -23 -179 -133z" />
    <glyph glyph-name="Acircumflex" unicode="&#xc2;" horiz-adv-x="833" 
d="M57 6q90 0 202 115q85 89 153 208q-32 7 -90 7q-190 0 -288 -87q-72 -65 -72 -145q0 -37 19 -63q25 -35 76 -35zM531 732l7 18q113 -29 128 -48q7 -9 29 -205q26 -230 48 -334l7 -33q13 -62 32 -62q10 0 44 45l14 -12q-52 -74 -68.5 -93.5t-28.5 -19.5q-57 0 -82 155
q-36 218 -63 418q-21 -1 -51 -60q-55 -111 -85 -159q68 -9 92 -23q14 -17 56 -51q-39 -39 -56 -73q-42 32 -76 47q21 9 21 39t-50 40q-82 -132 -180 -223q-118 -110 -212 -110q-59 0 -89 41q-24 32 -24 75q0 81 77 152q105 98 307 98q50 0 96 -6q42 81 68 147q9 27 19 53
q11 15 86 25q-11 86 -28 122q-14 29 -38 37zM519 784l-25 15q46 49 128 143q33 -35 81 -74q42 -35 47 -35q4 0 14 2l6 -11l-57 -40q-43 29 -109 93q-33 -41 -85 -93z" />
    <glyph glyph-name="Atilde" unicode="&#xc3;" horiz-adv-x="833" 
d="M57 6q90 0 202 115q85 89 153 208q-32 7 -90 7q-190 0 -288 -87q-72 -65 -72 -145q0 -37 19 -63q25 -35 76 -35zM531 732l7 18q113 -29 128 -48q7 -9 29 -205q26 -230 48 -334l7 -33q13 -62 32 -62q10 0 44 45l14 -12q-52 -74 -68.5 -93.5t-28.5 -19.5q-57 0 -82 155
q-36 218 -63 418q-21 -1 -51 -60q-55 -111 -85 -159q68 -9 92 -23q14 -17 56 -51q-39 -39 -56 -73q-42 32 -76 47q21 9 21 39t-50 40q-82 -132 -180 -223q-118 -110 -212 -110q-59 0 -89 41q-24 32 -24 75q0 81 77 152q105 98 307 98q50 0 96 -6q42 81 68 147q9 27 19 53
q11 15 86 25q-11 86 -28 122q-14 29 -38 37zM477 788v0l-18 7q56 90 83 90q17 0 75 -24t77 -24q14 0 43 43l18 -7q-56 -90 -83 -90q-16 0 -74 24t-78 24q-14 0 -43 -43z" />
    <glyph glyph-name="Adieresis" unicode="&#xc4;" horiz-adv-x="833" 
d="M57 6q90 0 202 115q85 89 153 208q-32 7 -90 7q-190 0 -288 -87q-72 -65 -72 -145q0 -37 19 -63q25 -35 76 -35zM531 732l7 18q113 -29 128 -48q7 -9 29 -205q26 -230 48 -334l7 -33q13 -62 32 -62q10 0 44 45l14 -12q-52 -74 -68.5 -93.5t-28.5 -19.5q-57 0 -82 155
q-36 218 -63 418q-21 -1 -51 -60q-55 -111 -85 -159q68 -9 92 -23q14 -17 56 -51q-39 -39 -56 -73q-42 32 -76 47q21 9 21 39t-50 40q-82 -132 -180 -223q-118 -110 -212 -110q-59 0 -89 41q-24 32 -24 75q0 81 77 152q105 98 307 98q50 0 96 -6q42 81 68 147q9 27 19 53
q11 15 86 25q-11 86 -28 122q-14 29 -38 37zM485 774v0l-12 11q12 18 12 22q0 13 -44 44q38 25 61 67q47 -36 47 -55q0 -13 -13 -31q-9 -12 -51 -58zM659 774v0l-12 11q12 18 12 22q0 13 -44 44q38 25 61 67q47 -36 47 -55q0 -13 -13 -31q-9 -12 -51 -58z" />
    <glyph glyph-name="Aring" unicode="&#xc5;" horiz-adv-x="833" 
d="M57 6q90 0 202 115q85 89 153 208q-32 7 -90 7q-190 0 -288 -87q-72 -65 -72 -145q0 -37 19 -63q25 -35 76 -35zM531 732l7 18q113 -29 128 -48q7 -9 29 -205q26 -230 48 -334l7 -33q13 -62 32 -62q10 0 44 45l14 -12q-52 -74 -68.5 -93.5t-28.5 -19.5q-57 0 -82 155
q-36 218 -63 418q-21 -1 -51 -60q-55 -111 -85 -159q68 -9 92 -23q14 -17 56 -51q-39 -39 -56 -73q-42 32 -76 47q21 9 21 39t-50 40q-82 -132 -180 -223q-118 -110 -212 -110q-59 0 -89 41q-24 32 -24 75q0 81 77 152q105 98 307 98q50 0 96 -6q42 81 68 147q9 27 19 53
q11 15 86 25q-11 86 -28 122q-14 29 -38 37zM513 853q0 39 27.5 66.5t66.5 27.5t66.5 -27.5t27.5 -66.5t-27.5 -66.5t-66.5 -27.5t-66.5 27.5t-27.5 66.5zM659 853q0 22 -15 37t-37 15t-37 -15t-15 -37t15 -37t37 -15t37 15t15 37z" />
    <glyph glyph-name="AE" unicode="&#xc6;" horiz-adv-x="1019" 
d="M869 281l-12 9q26 40 26 48q0 16 -41 16h-78q-28 0 -44 -25q24 -149 44 -195q30 -68 96 -68q34 0 59 12q29 15 104 71l10 -14q-106 -80 -173 -147q-116 4 -156 65q-38 58 -60 253q-10 86 -37 254q-20 -3 -50 -64q-52 -105 -83 -154q68 -9 92 -23q14 -17 56 -51
q-39 -39 -56 -73q-42 32 -76 47q21 9 21 39t-50 40q-82 -132 -180 -223q-118 -110 -212 -110q-59 0 -89 41q-24 32 -24 75q0 81 77 152q105 98 307 98q50 0 96 -6q42 81 68 147q9 27 19 53q10 14 82 24q-15 101 -28 133q-11 28 -36 37l4 16q90 -31 111 -40q18 -8 19 -15
l11 -93q5 5 79 54q66 43 81 68q2 -6 84.5 -40t82.5 -43q0 -12 -83 -118l-13 8q21 32 21 49q0 13 -48.5 34t-80.5 21q-43 0 -79.5 -29t-36.5 -62q0 -37 23 -198q34 47 57 73q21 -13 80 -13q69 0 114 13l5 -9q-47 -55 -103 -137zM69 6q90 0 202 115q85 89 153 208q-32 7 -90 7
q-190 0 -288 -87q-72 -65 -72 -145q0 -37 19 -63q25 -35 76 -35z" />
    <glyph glyph-name="Ccedilla" unicode="&#xc7;" horiz-adv-x="648" 
d="M294 212l-27 17q-3 107 -3 214q-32 39 -74 59q15 8 38 32q30 30 37 36q1 13 2.5 38t1.5 37q-93 -34 -142 -108q-47 -69 -47 -160q0 -144 147 -233q121 -74 251 -74q23 0 44 12q25 14 110 79l12 -14q-110 -83 -182 -166q-5 7 -33 13q-47 12 -52 13l-21 -30q59 -33 59 -54
q0 -34 -95 -136l-18 16q53 56 53 77q0 19 -66 45q39 47 66 89q-353 95 -353 331q0 109 80 200q73 83 190 131q3 43 9 86l24 -20q-10 -44 -18 -152q38 36 111 78q59 33 78 64q5 -16 90 -39q82 -23 82 -34q0 -18 -87 -128l-13 10q25 26 25 49q0 17 -48.5 32.5t-94.5 15.5
q-42 0 -88 -29.5t-46 -56.5q0 -29 44 -58q-34 -19 -58 -44q0 -133 12 -238z" />
    <glyph glyph-name="Egrave" unicode="&#xc8;" horiz-adv-x="685" 
d="M324 209l-24 11q-4 44 -12 227q-22 33 -67 61q44 30 69 63q1 28 6 79q-59 -15 -118 -83q-73 -85 -73 -192q0 -109 90 -187q68 -59 177 -94q81 -25 128 -25q27 0 54 15.5t104 73.5l10 -14q-163 -123 -183 -163q-80 29 -154 49q-147 40 -227 125q-77 81 -77 182
q0 122 85 217q74 83 187 124q3 32 16 84l22 -16q-18 -57 -23 -153h2q15 13 102 69q73 47 89 70q12 -16 95 -41q76 -24 76 -39q0 -6 -30 -43q-39 -50 -56 -77l-16 7q24 36 24 53q0 19 -55 36q-48 14 -80 14q-41 0 -89 -27q-51 -29 -51 -60q0 -35 43 -59q-43 -20 -58 -49
q2 -46 4 -134h2q22 41 54 79l56 64q16 -9 66 -17t68 -16l11 10l12 -7q-22 -30 -87 -134l-14 6l2 3q23 39 23 47q0 13 -46 22q-35 7 -57 7q-28 0 -59 -44q-27 -38 -27 -56q0 -35 6 -68zM330 930l4 11q6 -2 15 -2q27 0 60 16q68 -99 111 -146l-11 -12q-52 36 -103 73
q-56 40 -76 60z" />
    <glyph glyph-name="Eacute" unicode="&#xc9;" horiz-adv-x="685" 
d="M324 209l-24 11q-4 44 -12 227q-22 33 -67 61q44 30 69 63q1 28 6 79q-59 -15 -118 -83q-73 -85 -73 -192q0 -109 90 -187q68 -59 177 -94q81 -25 128 -25q27 0 54 15.5t104 73.5l10 -14q-163 -123 -183 -163q-80 29 -154 49q-147 40 -227 125q-77 81 -77 182
q0 122 85 217q74 83 187 124q3 32 16 84l22 -16q-18 -57 -23 -153h2q15 13 102 69q73 47 89 70q12 -16 95 -41q76 -24 76 -39q0 -6 -30 -43q-39 -50 -56 -77l-16 7q24 36 24 53q0 19 -55 36q-48 14 -80 14q-41 0 -89 -27q-51 -29 -51 -60q0 -35 43 -59q-43 -20 -58 -49
q2 -46 4 -134h2q22 41 54 79l56 64q16 -9 66 -17t68 -16l11 10l12 -7q-22 -30 -87 -134l-14 6l2 3q23 39 23 47q0 13 -46 22q-35 7 -57 7q-28 0 -59 -44q-27 -38 -27 -56q0 -35 6 -68zM387 797l-11 12q43 47 111 146q33 -16 60 -16q9 0 15 2l4 -11q-23 -23 -179 -133z" />
    <glyph glyph-name="Ecircumflex" unicode="&#xca;" horiz-adv-x="685" 
d="M324 209l-24 11q-4 44 -12 227q-22 33 -67 61q44 30 69 63q1 28 6 79q-59 -15 -118 -83q-73 -85 -73 -192q0 -109 90 -187q68 -59 177 -94q81 -25 128 -25q27 0 54 15.5t104 73.5l10 -14q-163 -123 -183 -163q-80 29 -154 49q-147 40 -227 125q-77 81 -77 182
q0 122 85 217q74 83 187 124q3 32 16 84l22 -16q-18 -57 -23 -153h2q15 13 102 69q73 47 89 70q12 -16 95 -41q76 -24 76 -39q0 -6 -30 -43q-39 -50 -56 -77l-16 7q24 36 24 53q0 19 -55 36q-48 14 -80 14q-41 0 -89 -27q-51 -29 -51 -60q0 -35 43 -59q-43 -20 -58 -49
q2 -46 4 -134h2q22 41 54 79l56 64q16 -9 66 -17t68 -16l11 10l12 -7q-22 -30 -87 -134l-14 6l2 3q23 39 23 47q0 13 -46 22q-35 7 -57 7q-28 0 -59 -44q-27 -38 -27 -56q0 -35 6 -68zM305 784l-25 15q46 49 128 143q33 -35 81 -74q42 -35 47 -35q4 0 14 2l6 -11l-57 -40
q-43 29 -109 93q-33 -41 -85 -93z" />
    <glyph glyph-name="Edieresis" unicode="&#xcb;" horiz-adv-x="685" 
d="M324 209l-24 11q-4 44 -12 227q-22 33 -67 61q44 30 69 63q1 28 6 79q-59 -15 -118 -83q-73 -85 -73 -192q0 -109 90 -187q68 -59 177 -94q81 -25 128 -25q27 0 54 15.5t104 73.5l10 -14q-163 -123 -183 -163q-80 29 -154 49q-147 40 -227 125q-77 81 -77 182
q0 122 85 217q74 83 187 124q3 32 16 84l22 -16q-18 -57 -23 -153h2q15 13 102 69q73 47 89 70q12 -16 95 -41q76 -24 76 -39q0 -6 -30 -43q-39 -50 -56 -77l-16 7q24 36 24 53q0 19 -55 36q-48 14 -80 14q-41 0 -89 -27q-51 -29 -51 -60q0 -35 43 -59q-43 -20 -58 -49
q2 -46 4 -134h2q22 41 54 79l56 64q16 -9 66 -17t68 -16l11 10l12 -7q-22 -30 -87 -134l-14 6l2 3q23 39 23 47q0 13 -46 22q-35 7 -57 7q-28 0 -59 -44q-27 -38 -27 -56q0 -35 6 -68zM331 774v0l-12 11q12 18 12 22q0 13 -44 44q38 25 61 67q47 -36 47 -55q0 -13 -13 -31
q-9 -12 -51 -58zM505 774v0l-12 11q12 18 12 22q0 13 -44 44q38 25 61 67q47 -36 47 -55q0 -13 -13 -31q-9 -12 -51 -58z" />
    <glyph glyph-name="Igrave" unicode="&#xcc;" horiz-adv-x="444" 
d="M42 601l-15 8q47 81 73 107q16 16 34 16q23 0 130 -41t121 -41q15 0 33 9l7 -9q-61 -41 -75 -61t-14 -65q0 -108 18 -175q30 -112 30 -171q0 -65 -62 -124.5t-130 -59.5q-77 0 -119 49t-42 136q0 51 27 121q29 74 60 91q37 20 70 47q19 -46 54 -70q-33 -16 -67 -58
q-16 44 -41 44q-23 0 -52 -56q-33 -62 -33 -128q0 -80 45 -123q37 -35 91 -35q49 0 82 31q39 36 39 104q0 48 -21 154.5t-21 174.5q0 63 74 121l-2 2q-15 -3 -21 -3q-13 0 -95.5 29t-114.5 29q-28 0 -63 -53zM104 930l4 11q6 -2 15 -2q27 0 60 16q68 -99 111 -146l-11 -12
q-52 36 -103 73q-56 40 -76 60z" />
    <glyph glyph-name="Iacute" unicode="&#xcd;" horiz-adv-x="444" 
d="M42 601l-15 8q47 81 73 107q16 16 34 16q23 0 130 -41t121 -41q15 0 33 9l7 -9q-61 -41 -75 -61t-14 -65q0 -108 18 -175q30 -112 30 -171q0 -65 -62 -124.5t-130 -59.5q-77 0 -119 49t-42 136q0 51 27 121q29 74 60 91q37 20 70 47q19 -46 54 -70q-33 -16 -67 -58
q-16 44 -41 44q-23 0 -52 -56q-33 -62 -33 -128q0 -80 45 -123q37 -35 91 -35q49 0 82 31q39 36 39 104q0 48 -21 154.5t-21 174.5q0 63 74 121l-2 2q-15 -3 -21 -3q-13 0 -95.5 29t-114.5 29q-28 0 -63 -53zM161 797l-11 12q43 47 111 146q33 -16 60 -16q9 0 15 2l4 -11
q-23 -23 -179 -133z" />
    <glyph glyph-name="Icircumflex" unicode="&#xce;" horiz-adv-x="444" 
d="M42 601l-15 8q47 81 73 107q16 16 34 16q23 0 130 -41t121 -41q15 0 33 9l7 -9q-61 -41 -75 -61t-14 -65q0 -108 18 -175q30 -112 30 -171q0 -65 -62 -124.5t-130 -59.5q-77 0 -119 49t-42 136q0 51 27 121q29 74 60 91q37 20 70 47q19 -46 54 -70q-33 -16 -67 -58
q-16 44 -41 44q-23 0 -52 -56q-33 -62 -33 -128q0 -80 45 -123q37 -35 91 -35q49 0 82 31q39 36 39 104q0 48 -21 154.5t-21 174.5q0 63 74 121l-2 2q-15 -3 -21 -3q-13 0 -95.5 29t-114.5 29q-28 0 -63 -53zM109 784l-25 15q46 49 128 143q33 -35 81 -74q42 -35 47 -35
q4 0 14 2l6 -11l-57 -40q-43 29 -109 93q-33 -41 -85 -93z" />
    <glyph glyph-name="Idieresis" unicode="&#xcf;" horiz-adv-x="444" 
d="M42 601l-15 8q47 81 73 107q16 16 34 16q23 0 130 -41t121 -41q15 0 33 9l7 -9q-61 -41 -75 -61t-14 -65q0 -108 18 -175q30 -112 30 -171q0 -65 -62 -124.5t-130 -59.5q-77 0 -119 49t-42 136q0 51 27 121q29 74 60 91q37 20 70 47q19 -46 54 -70q-33 -16 -67 -58
q-16 44 -41 44q-23 0 -52 -56q-33 -62 -33 -128q0 -80 45 -123q37 -35 91 -35q49 0 82 31q39 36 39 104q0 48 -21 154.5t-21 174.5q0 63 74 121l-2 2q-15 -3 -21 -3q-13 0 -95.5 29t-114.5 29q-28 0 -63 -53zM125 774v0l-12 11q12 18 12 22q0 13 -44 44q38 25 61 67
q47 -36 47 -55q0 -13 -13 -31q-9 -12 -51 -58zM299 774v0l-12 11q12 18 12 22q0 13 -44 44q38 25 61 67q47 -36 47 -55q0 -13 -13 -31q-9 -12 -51 -58z" />
    <glyph glyph-name="Eth" unicode="&#xd0;" horiz-adv-x="815" 
d="M199 279l22 30l117 -3v51q-23 -16 -78 -16q-88 0 -152 44q-73 49 -73 133q0 111 99 168q80 46 199 46q180 0 311.5 -122.5t131.5 -283.5q0 -140 -88 -242q-83 -96 -180 -96q-68 0 -149 34l12 -100l-24 14q-4 46 -6 93q-128 46 -167 46q-22 0 -63 -53l-17 8q67 83 80 98
q17 19 27 19q26 0 137 -38v43q-1 30 -1 50q0 45 1 80q-71 0 -139 -3zM353 585l24 -14q-6 -33 -15 -83q11 -30 57 -61q-31 -18 -63 -54v-67q145 0 218 3l-22 -30q-97 3 -196 3q-1 -35 -1 -77q0 -22 1 -55v-47q152 -55 218 -55q53 0 100 51q54 61 54 158q0 166 -150 293
q-143 122 -310 122q-93 0 -148 -36q-61 -40 -61 -118q0 -72 60 -117q57 -42 138 -42q29 0 47 9q14 8 14 18q0 30 -39 41q28 22 36 29q18 17 29 35q3 26 9 94z" />
    <glyph glyph-name="Ntilde" unicode="&#xd1;" horiz-adv-x="907" 
d="M160 21l-10 13q46 35 95 95q48 57 68 101q-32 -2 -60 -2q-116 0 -179.5 65t-63.5 178t77 187q65 62 134 62q56 0 121 -61q82 -77 82 -191q0 -86 -61 -210q39 11 73 37.5t34 44.5q0 24 -18 40q46 14 74 42q42 138 141 308l10 -7q-4 -6 -4 -9q0 -4 66 -46t79 -42q5 0 11 4
l5 -10q-21 -13 -46 -95q-29 -96 -29 -195q0 -117 32 -193q25 -61 50 -61q12 0 56 55l11 -11q-70 -90 -105 -136q-122 105 -122 336q0 147 50 256q-36 15 -83 44q-27 -27 -64 -104q-34 -71 -42 -106q17 -47 42 -66q-8 -3 -71 -37q-23 -124 -29 -238l56 -28l-54 -66
q2 -28 6 -56l-23 7l-2 50q-44 35 -112 60t-124 25q-21 0 -71 -40zM306 121q56 0 160 -44q4 106 26 217q-55 -36 -144 -61q-36 -62 -92 -123l2 -2q16 13 48 13zM364 422q0 91 -56 160q-59 72 -141 72q-63 0 -103 -59q-36 -52 -36 -122q0 -106 59.5 -166.5t170.5 -60.5
q44 0 65 3q41 102 41 173zM369 788v0l-18 7q56 90 83 90q17 0 75 -24t77 -24q14 0 43 43l18 -7q-56 -90 -83 -90q-16 0 -74 24t-78 24q-14 0 -43 -43z" />
    <glyph glyph-name="Ograve" unicode="&#xd2;" horiz-adv-x="833" 
d="M307 758l25 -20q-18 -61 -25 -140h2q14 22 84.5 66.5t87.5 67.5q16 -14 112.5 -53t142.5 -80q70 -63 70 -157q0 -160 -154 -314q-108 -42 -195 -134q-214 41 -317 119q-113 85 -113 225q0 118 77 204q62 70 191 133q4 39 12 83zM315 206l-30 14q-8 82 -8 120q0 31 1 67.5
t1 45.5q-10 35 -61 69q42 8 65 49q2 14 8 76q-192 -71 -192 -278q0 -127 133 -216q113 -75 221 -75q120 0 204 109q77 99 77 217q0 91 -93 164.5t-213 73.5q-43 0 -76.5 -27t-33.5 -49q0 -35 46 -58q-38 -20 -63 -47q0 -170 14 -255zM299 930l4 11q6 -2 15 -2q27 0 60 16
q68 -99 111 -146l-11 -12q-52 36 -103 73q-56 40 -76 60z" />
    <glyph glyph-name="Oacute" unicode="&#xd3;" horiz-adv-x="833" 
d="M307 758l25 -20q-18 -61 -25 -140h2q14 22 84.5 66.5t87.5 67.5q16 -14 112.5 -53t142.5 -80q70 -63 70 -157q0 -160 -154 -314q-108 -42 -195 -134q-214 41 -317 119q-113 85 -113 225q0 118 77 204q62 70 191 133q4 39 12 83zM315 206l-30 14q-8 82 -8 120q0 31 1 67.5
t1 45.5q-10 35 -61 69q42 8 65 49q2 14 8 76q-192 -71 -192 -278q0 -127 133 -216q113 -75 221 -75q120 0 204 109q77 99 77 217q0 91 -93 164.5t-213 73.5q-43 0 -76.5 -27t-33.5 -49q0 -35 46 -58q-38 -20 -63 -47q0 -170 14 -255zM356 797l-11 12q43 47 111 146
q33 -16 60 -16q9 0 15 2l4 -11q-23 -23 -179 -133z" />
    <glyph glyph-name="Ocircumflex" unicode="&#xd4;" horiz-adv-x="833" 
d="M307 758l25 -20q-18 -61 -25 -140h2q14 22 84.5 66.5t87.5 67.5q16 -14 112.5 -53t142.5 -80q70 -63 70 -157q0 -160 -154 -314q-108 -42 -195 -134q-214 41 -317 119q-113 85 -113 225q0 118 77 204q62 70 191 133q4 39 12 83zM315 206l-30 14q-8 82 -8 120q0 31 1 67.5
t1 45.5q-10 35 -61 69q42 8 65 49q2 14 8 76q-192 -71 -192 -278q0 -127 133 -216q113 -75 221 -75q120 0 204 109q77 99 77 217q0 91 -93 164.5t-213 73.5q-43 0 -76.5 -27t-33.5 -49q0 -35 46 -58q-38 -20 -63 -47q0 -170 14 -255zM304 784l-25 15q46 49 128 143
q33 -35 81 -74q42 -35 47 -35q4 0 14 2l6 -11l-57 -40q-43 29 -109 93q-33 -41 -85 -93z" />
    <glyph glyph-name="Otilde" unicode="&#xd5;" horiz-adv-x="833" 
d="M307 758l25 -20q-18 -61 -25 -140h2q14 22 84.5 66.5t87.5 67.5q16 -14 112.5 -53t142.5 -80q70 -63 70 -157q0 -160 -154 -314q-108 -42 -195 -134q-214 41 -317 119q-113 85 -113 225q0 118 77 204q62 70 191 133q4 39 12 83zM315 206l-30 14q-8 82 -8 120q0 31 1 67.5
t1 45.5q-10 35 -61 69q42 8 65 49q2 14 8 76q-192 -71 -192 -278q0 -127 133 -216q113 -75 221 -75q120 0 204 109q77 99 77 217q0 91 -93 164.5t-213 73.5q-43 0 -76.5 -27t-33.5 -49q0 -35 46 -58q-38 -20 -63 -47q0 -170 14 -255zM287 788v0l-18 7q56 90 83 90
q17 0 75 -24t77 -24q14 0 43 43l18 -7q-56 -90 -83 -90q-16 0 -74 24t-78 24q-14 0 -43 -43z" />
    <glyph glyph-name="Odieresis" unicode="&#xd6;" horiz-adv-x="833" 
d="M307 758l25 -20q-18 -61 -25 -140h2q14 22 84.5 66.5t87.5 67.5q16 -14 112.5 -53t142.5 -80q70 -63 70 -157q0 -160 -154 -314q-108 -42 -195 -134q-214 41 -317 119q-113 85 -113 225q0 118 77 204q62 70 191 133q4 39 12 83zM315 206l-30 14q-8 82 -8 120q0 31 1 67.5
t1 45.5q-10 35 -61 69q42 8 65 49q2 14 8 76q-192 -71 -192 -278q0 -127 133 -216q113 -75 221 -75q120 0 204 109q77 99 77 217q0 91 -93 164.5t-213 73.5q-43 0 -76.5 -27t-33.5 -49q0 -35 46 -58q-38 -20 -63 -47q0 -170 14 -255zM320 774v0l-12 11q12 18 12 22
q0 13 -44 44q38 25 61 67q47 -36 47 -55q0 -13 -13 -31q-9 -12 -51 -58zM494 774v0l-12 11q12 18 12 22q0 13 -44 44q38 25 61 67q47 -36 47 -55q0 -13 -13 -31q-9 -12 -51 -58z" />
    <glyph glyph-name="multiply" unicode="&#xd7;" horiz-adv-x="600" 
d="M300 294l186 186l41 -41l-186 -186l186 -186l-41 -41l-186 186l-186 -186l-41 41l186 186l-186 186l41 41z" />
    <glyph glyph-name="Oslash" unicode="&#xd8;" horiz-adv-x="833" 
d="M305 273l-24 14q-4 40 -4 89q0 18 1 42v35q-8 35 -60 69q42 8 65 49q2 14 8 76q-192 -71 -192 -278q0 -134 145 -222q181 249 322 466q-67 29 -138 29q-43 0 -76.5 -27t-33.5 -49q0 -35 46 -58q-38 -20 -63 -47q0 -126 4 -188zM734 404q0 56 -38.5 109t-98.5 84
q-158 -224 -325 -466q97 -53 181 -53q120 0 204 109q77 99 77 217zM178 -6l-38 8q38 52 55 77q-168 87 -168 259q0 118 77 204q62 70 191 133q4 39 12 83l25 -20q-18 -61 -25 -140h2q14 22 84.5 66.5t87.5 67.5q13 -12 125 -58q30 40 46 66l38 -12q-14 -22 -51 -68
q167 -78 167 -218q0 -160 -154 -314q-108 -42 -195 -134q-144 27 -231 70q-8 -11 -24 -34.5t-24 -35.5z" />
    <glyph glyph-name="Ugrave" unicode="&#xd9;" horiz-adv-x="778" 
d="M311 290l4 -99q3 -63 7 -85q11 -58 43 -58q38 0 101 80q72 91 112 216q12 37 12 216q0 37 -2 107q58 14 105 61l7 -7q-50 -121 -50 -448q0 -203 57 -203q16 0 62 54l13 -10q-99 -123 -111 -123q-21 0 -47 33q-39 51 -42 152l-2 72h-2q-50 -90 -136 -175t-124 -85
q-35 0 -58 43q-25 48 -25 134v110q-13 -3 -30 -3q-75 0 -131 52q-60 55 -60 136q0 108 85 190q72 70 132 70q29 0 55 -48q29 -53 29 -126q0 -95 -4 -233q93 36 93 73q0 20 -31 42q38 14 77 57q20 -47 61 -88q-5 -3 -62 -43q-52 -37 -138 -64zM237 538q0 60 -22 93
q-18 29 -46 29q-36 0 -82 -51q-55 -62 -55 -148q0 -75 52.5 -123t129.5 -48q7 0 21 2q2 79 2 246zM351 930l4 11q6 -2 15 -2q27 0 60 16q68 -99 111 -146l-11 -12q-52 36 -103 73q-56 40 -76 60z" />
    <glyph glyph-name="Uacute" unicode="&#xda;" horiz-adv-x="778" 
d="M311 290l4 -99q3 -63 7 -85q11 -58 43 -58q38 0 101 80q72 91 112 216q12 37 12 216q0 37 -2 107q58 14 105 61l7 -7q-50 -121 -50 -448q0 -203 57 -203q16 0 62 54l13 -10q-99 -123 -111 -123q-21 0 -47 33q-39 51 -42 152l-2 72h-2q-50 -90 -136 -175t-124 -85
q-35 0 -58 43q-25 48 -25 134v110q-13 -3 -30 -3q-75 0 -131 52q-60 55 -60 136q0 108 85 190q72 70 132 70q29 0 55 -48q29 -53 29 -126q0 -95 -4 -233q93 36 93 73q0 20 -31 42q38 14 77 57q20 -47 61 -88q-5 -3 -62 -43q-52 -37 -138 -64zM237 538q0 60 -22 93
q-18 29 -46 29q-36 0 -82 -51q-55 -62 -55 -148q0 -75 52.5 -123t129.5 -48q7 0 21 2q2 79 2 246zM383 797l-11 12q43 47 111 146q33 -16 60 -16q9 0 15 2l4 -11q-23 -23 -179 -133z" />
    <glyph glyph-name="Ucircumflex" unicode="&#xdb;" horiz-adv-x="778" 
d="M311 290l4 -99q3 -63 7 -85q11 -58 43 -58q38 0 101 80q72 91 112 216q12 37 12 216q0 37 -2 107q58 14 105 61l7 -7q-50 -121 -50 -448q0 -203 57 -203q16 0 62 54l13 -10q-99 -123 -111 -123q-21 0 -47 33q-39 51 -42 152l-2 72h-2q-50 -90 -136 -175t-124 -85
q-35 0 -58 43q-25 48 -25 134v110q-13 -3 -30 -3q-75 0 -131 52q-60 55 -60 136q0 108 85 190q72 70 132 70q29 0 55 -48q29 -53 29 -126q0 -95 -4 -233q93 36 93 73q0 20 -31 42q38 14 77 57q20 -47 61 -88q-5 -3 -62 -43q-52 -37 -138 -64zM237 538q0 60 -22 93
q-18 29 -46 29q-36 0 -82 -51q-55 -62 -55 -148q0 -75 52.5 -123t129.5 -48q7 0 21 2q2 79 2 246zM331 784l-25 15q46 49 128 143q33 -35 81 -74q42 -35 47 -35q4 0 14 2l6 -11l-57 -40q-43 29 -109 93q-33 -41 -85 -93z" />
    <glyph glyph-name="Udieresis" unicode="&#xdc;" horiz-adv-x="778" 
d="M311 290l4 -99q3 -63 7 -85q11 -58 43 -58q38 0 101 80q72 91 112 216q12 37 12 216q0 37 -2 107q58 14 105 61l7 -7q-50 -121 -50 -448q0 -203 57 -203q16 0 62 54l13 -10q-99 -123 -111 -123q-21 0 -47 33q-39 51 -42 152l-2 72h-2q-50 -90 -136 -175t-124 -85
q-35 0 -58 43q-25 48 -25 134v110q-13 -3 -30 -3q-75 0 -131 52q-60 55 -60 136q0 108 85 190q72 70 132 70q29 0 55 -48q29 -53 29 -126q0 -95 -4 -233q93 36 93 73q0 20 -31 42q38 14 77 57q20 -47 61 -88q-5 -3 -62 -43q-52 -37 -138 -64zM237 538q0 60 -22 93
q-18 29 -46 29q-36 0 -82 -51q-55 -62 -55 -148q0 -75 52.5 -123t129.5 -48q7 0 21 2q2 79 2 246zM342 774v0l-12 11q12 18 12 22q0 13 -44 44q38 25 61 67q47 -36 47 -55q0 -13 -13 -31q-9 -12 -51 -58zM516 774v0l-12 11q12 18 12 22q0 13 -44 44q38 25 61 67
q47 -36 47 -55q0 -13 -13 -31q-9 -12 -51 -58z" />
    <glyph glyph-name="Yacute" unicode="&#xdd;" horiz-adv-x="778" 
d="M206 18l14 -8q-21 -32 -21 -69q0 -52 45 -91q50 -44 134 -44q96 0 153.5 54.5t57.5 144.5q0 18 4 101q3 87 4 175l-2 2q-48 -96 -136 -188q-89 -95 -135 -95q-51 0 -71 115q-8 47 -12 154q-99 0 -158 56.5t-59 155.5q0 101 82 175q70 64 134 64q29 0 52 -73.5t23 -166.5
q0 -29 -1 -87.5t-1 -87.5q46 10 72 35q21 19 21 34q0 24 -28 41q49 23 76 62q25 -55 58 -84q-13 -3 -74 -50q-69 -53 -125 -62q8 -221 63 -221q27 0 79 58q57 63 95 146q46 100 46 193q0 -22 -7 216q22 0 60 25q30 19 44 34l6 -7q-31 -66 -31 -305q0 -59 2.5 -187t2.5 -191
q0 -124 -101 -195q-92 -65 -233 -65q-86 0 -151 32q-61 31 -61 66q0 27 79 138zM237 482q0 172 -75 172q-41 0 -80.5 -54.5t-39.5 -117.5q0 -92 56 -142q53 -47 142 -47q0 31 -1.5 93.5t-1.5 95.5zM383 797l-11 12q43 47 111 146q33 -16 60 -16q9 0 15 2l4 -11
q-23 -23 -179 -133z" />
    <glyph glyph-name="Thorn" unicode="&#xde;" horiz-adv-x="833" 
d="M231 24l-13 11q76 110 112 110q11 0 29 -5v204q0 194 -55 286q-42 72 -108 72q-62 0 -98.5 -52.5t-36.5 -141.5q0 -106 42 -168q32 -49 68 -49q12 0 23 11t11 29q0 21 -13 37q59 0 97 24q1 -33 4 -50q4 -28 17 -44q-27 0 -57.5 -15.5t-61.5 -15.5q-63 0 -103 59
q-45 66 -45 188q0 118 72 184q56 52 118 52q72 0 125 -68q67 -86 67 -248v-128h2q33 94 101 174q63 75 101 75q39 0 85 -64q55 -76 55 -181q0 -159 -78 -221q-55 -38 -135 -101q-20 17 -141 57q-2 -76 -2 -115q0 -20 5 -115q-63 -21 -96 -51q31 196 37 300q-30 9 -55 9
q-37 0 -73 -49zM709 233q0 108 -48 185q-40 65 -78 65q-54 0 -111 -128q-55 -124 -55 -231q158 -57 186 -57q38 0 67 33q39 44 39 133z" />
    <glyph glyph-name="germandbls" unicode="&#xdf;" horiz-adv-x="463" 
d="M32 422l59 57l3 72q4 94 126 150q107 49 143 49q32 0 54.5 -18t22.5 -42q0 -35 -76.5 -123.5t-76.5 -127.5q0 -36 79.5 -120t79.5 -123q0 -37 -90 -127q-30 -30 -82 -86l-10 5q4 17 -66 70q36 37 64 88l11 -9q-11 -15 -11 -25q0 -16 18 -29.5t38 -13.5q18 0 40 27t22 43
q0 42 -82.5 132t-82.5 116q0 29 79.5 127t79.5 135q0 19 -22 36t-58 17q-34 0 -71 -31q-51 -41 -51 -110q0 -509 -68 -797l-20 -15q16 169 16 305q0 58 -3 184t-3 174q0 26 -11 26q-6 0 -40 -28z" />
    <glyph glyph-name="agrave" unicode="&#xe0;" horiz-adv-x="426" 
d="M387 84l42 48l14 -12l-104 -126q-58 62 -65 153h-2q-69 -114 -129 -153l-8 6l7 8q-46 37 -78.5 100.5t-32.5 123.5q0 68 44 124q38 47 167 152q88 -73 141 -77q-49 -54 -49 -211q0 -119 53 -136zM97 279q0 -87 38 -145q30 -48 58 -48q23 0 45.5 46.5t26.5 112.5
q7 120 20 142q-22 7 -54 27q-28 17 -34 17q-23 0 -56 -37q-44 -47 -44 -115zM115 695l4 11q6 -2 15 -2q27 0 60 16q68 -99 111 -146l-11 -12q-52 36 -103 73q-56 40 -76 60z" />
    <glyph glyph-name="aacute" unicode="&#xe1;" horiz-adv-x="426" 
d="M387 84l42 48l14 -12l-104 -126q-58 62 -65 153h-2q-69 -114 -129 -153l-8 6l7 8q-46 37 -78.5 100.5t-32.5 123.5q0 68 44 124q38 47 167 152q88 -73 141 -77q-49 -54 -49 -211q0 -119 53 -136zM97 279q0 -87 38 -145q30 -48 58 -48q23 0 45.5 46.5t26.5 112.5
q7 120 20 142q-22 7 -54 27q-28 17 -34 17q-23 0 -56 -37q-44 -47 -44 -115zM152 562l-11 12q43 47 111 146q33 -16 60 -16q9 0 15 2l4 -11q-23 -23 -179 -133z" />
    <glyph glyph-name="acircumflex" unicode="&#xe2;" horiz-adv-x="426" 
d="M387 84l42 48l14 -12l-104 -126q-58 62 -65 153h-2q-69 -114 -129 -153l-8 6l7 8q-46 37 -78.5 100.5t-32.5 123.5q0 68 44 124q38 47 167 152q88 -73 141 -77q-49 -54 -49 -211q0 -119 53 -136zM97 279q0 -87 38 -145q30 -48 58 -48q23 0 45.5 46.5t26.5 112.5
q7 120 20 142q-22 7 -54 27q-28 17 -34 17q-23 0 -56 -37q-44 -47 -44 -115zM115 549l-25 15q46 49 128 143q33 -35 81 -74q42 -35 47 -35q4 0 14 2l6 -11l-57 -40q-43 29 -109 93q-33 -41 -85 -93z" />
    <glyph glyph-name="atilde" unicode="&#xe3;" horiz-adv-x="426" 
d="M387 84l42 48l14 -12l-104 -126q-58 62 -65 153h-2q-69 -114 -129 -153l-8 6l7 8q-46 37 -78.5 100.5t-32.5 123.5q0 68 44 124q38 47 167 152q88 -73 141 -77q-49 -54 -49 -211q0 -119 53 -136zM97 279q0 -87 38 -145q30 -48 58 -48q23 0 45.5 46.5t26.5 112.5
q7 120 20 142q-22 7 -54 27q-28 17 -34 17q-23 0 -56 -37q-44 -47 -44 -115zM123 553v0l-18 7q56 90 83 90q17 0 75 -24t77 -24q14 0 43 43l18 -7q-56 -90 -83 -90q-16 0 -74 24t-78 24q-14 0 -43 -43z" />
    <glyph glyph-name="adieresis" unicode="&#xe4;" horiz-adv-x="426" 
d="M387 84l42 48l14 -12l-104 -126q-58 62 -65 153h-2q-69 -114 -129 -153l-8 6l7 8q-46 37 -78.5 100.5t-32.5 123.5q0 68 44 124q38 47 167 152q88 -73 141 -77q-49 -54 -49 -211q0 -119 53 -136zM97 279q0 -87 38 -145q30 -48 58 -48q23 0 45.5 46.5t26.5 112.5
q7 120 20 142q-22 7 -54 27q-28 17 -34 17q-23 0 -56 -37q-44 -47 -44 -115zM146 539v0l-12 11q12 18 12 22q0 13 -44 44q38 25 61 67q47 -36 47 -55q0 -13 -13 -31q-9 -12 -51 -58zM320 539v0l-12 11q12 18 12 22q0 13 -44 44q38 25 61 67q47 -36 47 -55q0 -13 -13 -31
q-9 -12 -51 -58z" />
    <glyph glyph-name="aring" unicode="&#xe5;" horiz-adv-x="426" 
d="M387 84l42 48l14 -12l-104 -126q-58 62 -65 153h-2q-69 -114 -129 -153l-8 6l7 8q-46 37 -78.5 100.5t-32.5 123.5q0 68 44 124q38 47 167 152q88 -73 141 -77q-49 -54 -49 -211q0 -119 53 -136zM97 279q0 -87 38 -145q30 -48 58 -48q23 0 45.5 46.5t26.5 112.5
q7 120 20 142q-22 7 -54 27q-28 17 -34 17q-23 0 -56 -37q-44 -47 -44 -115zM159 638q0 39 27.5 66.5t66.5 27.5t66.5 -27.5t27.5 -66.5t-27.5 -66.5t-66.5 -27.5t-66.5 27.5t-27.5 66.5zM305 638q0 22 -15 37t-37 15t-37 -15t-15 -37t15 -37t37 -15t37 15t15 37z" />
    <glyph glyph-name="ae" unicode="&#xe6;" horiz-adv-x="556" 
d="M383 -6l-11 6l4 6q-50 36 -68 61q-22 29 -31 82h-2q-74 -117 -132 -155l-8 6l7 8q-46 37 -78.5 100.5t-32.5 123.5q0 68 44 124q38 47 167 152q51 -54 109 -71l77 71q47 -22 97 -103l9 6l6 -10l-193 -144l15 55l6 2q0 -6 6 -6q10 0 40.5 23.5t30.5 37.5q0 16 -15 41
q-18 28 -34 28q-60 0 -60 -187q0 -83 38 -131q27 -36 49 -36q9 0 25 16l75 74l14 -11q-64 -65 -77 -79q-47 -51 -77 -90zM265 245q7 120 20 142q-22 7 -54 27q-28 17 -34 17q-23 0 -56 -37q-44 -47 -44 -115q0 -87 38 -145q30 -48 58 -48q23 0 45.5 46.5t26.5 112.5z" />
    <glyph glyph-name="ccedilla" unicode="&#xe7;" horiz-adv-x="333" 
d="M187 -6l-9 6l-16 -23q59 -33 59 -54q0 -34 -95 -136l-18 16q53 56 53 77q0 19 -66 45q38 46 68 92q-60 44 -99 96q-43 58 -43 107q0 76 43 141q29 44 85.5 91t62.5 56q55 -42 93 -94l6 5l9 -10q-29 -29 -97 -86l-11 13q13 7 13 20q0 16 -16 41q-19 29 -40 29
q-25 0 -50 -31q-32 -39 -32 -102q0 -64 50 -133.5t84 -69.5q14 0 33 16t70 70l14 -12q-87 -85 -151 -170z" />
    <glyph glyph-name="egrave" unicode="&#xe8;" horiz-adv-x="333" 
d="M327 174l14 -11q-64 -65 -77 -79q-47 -51 -77 -90l-11 6l4 6q-59 36 -100 86q-59 70 -59 144q0 89 86 180l100 92q55 -32 91 -103l14 8l7 -12q-76 -51 -219 -157l10 54h7q1 -8 9 -8q7 0 47.5 31t40.5 39q0 20 -15.5 46t-29.5 26q-28 0 -58 -41t-30 -89q0 -88 63 -159
q51 -59 83 -59q9 0 25 16zM69 695l4 11q6 -2 15 -2q27 0 60 16q68 -99 111 -146l-11 -12q-52 36 -103 73q-56 40 -76 60z" />
    <glyph glyph-name="eacute" unicode="&#xe9;" horiz-adv-x="333" 
d="M327 174l14 -11q-64 -65 -77 -79q-47 -51 -77 -90l-11 6l4 6q-59 36 -100 86q-59 70 -59 144q0 89 86 180l100 92q55 -32 91 -103l14 8l7 -12q-76 -51 -219 -157l10 54h7q1 -8 9 -8q7 0 47.5 31t40.5 39q0 20 -15.5 46t-29.5 26q-28 0 -58 -41t-30 -89q0 -88 63 -159
q51 -59 83 -59q9 0 25 16zM106 562l-11 12q43 47 111 146q33 -16 60 -16q9 0 15 2l4 -11q-23 -23 -179 -133z" />
    <glyph glyph-name="ecircumflex" unicode="&#xea;" horiz-adv-x="333" 
d="M327 174l14 -11q-64 -65 -77 -79q-47 -51 -77 -90l-11 6l4 6q-59 36 -100 86q-59 70 -59 144q0 89 86 180l100 92q55 -32 91 -103l14 8l7 -12q-76 -51 -219 -157l10 54h7q1 -8 9 -8q7 0 47.5 31t40.5 39q0 20 -15.5 46t-29.5 26q-28 0 -58 -41t-30 -89q0 -88 63 -159
q51 -59 83 -59q9 0 25 16zM74 549l-25 15q46 49 128 143q33 -35 81 -74q42 -35 47 -35q4 0 14 2l6 -11l-57 -40q-43 29 -109 93q-33 -41 -85 -93z" />
    <glyph glyph-name="edieresis" unicode="&#xeb;" horiz-adv-x="333" 
d="M327 174l14 -11q-64 -65 -77 -79q-47 -51 -77 -90l-11 6l4 6q-59 36 -100 86q-59 70 -59 144q0 89 86 180l100 92q55 -32 91 -103l14 8l7 -12q-76 -51 -219 -157l10 54h7q1 -8 9 -8q7 0 47.5 31t40.5 39q0 20 -15.5 46t-29.5 26q-28 0 -58 -41t-30 -89q0 -88 63 -159
q51 -59 83 -59q9 0 25 16zM105 539v0l-12 11q12 18 12 22q0 13 -44 44q38 25 61 67q47 -36 47 -55q0 -13 -13 -31q-9 -12 -51 -58zM279 539v0l-12 11q12 18 12 22q0 13 -44 44q38 25 61 67q47 -36 47 -55q0 -13 -13 -31q-9 -12 -51 -58z" />
    <glyph glyph-name="igrave" unicode="&#xec;" horiz-adv-x="241" 
d="M198 79l25 33l14 -10q-23 -30 -70 -102q-63 48 -79 72t-16 65q0 114 15 255q-28 19 -41 34l-26 -22l-11 11q40 36 89 87q31 -34 80 -59v-9q-18 0 -24 -36q-16 -95 -16 -208q0 -48 8 -65q11 -22 52 -46zM3 695l4 11q6 -2 15 -2q27 0 60 16q68 -99 111 -146l-11 -12
q-52 36 -103 73q-56 40 -76 60z" />
    <glyph glyph-name="iacute" unicode="&#xed;" horiz-adv-x="241" 
d="M198 79l25 33l14 -10q-23 -30 -70 -102q-63 48 -79 72t-16 65q0 114 15 255q-28 19 -41 34l-26 -22l-11 11q40 36 89 87q31 -34 80 -59v-9q-18 0 -24 -36q-16 -95 -16 -208q0 -48 8 -65q11 -22 52 -46zM60 562l-11 12q43 47 111 146q33 -16 60 -16q9 0 15 2l4 -11
q-23 -23 -179 -133z" />
    <glyph glyph-name="icircumflex" unicode="&#xee;" horiz-adv-x="241" 
d="M198 79l25 33l14 -10q-23 -30 -70 -102q-63 48 -79 72t-16 65q0 114 15 255q-28 19 -41 34l-26 -22l-11 11q40 36 89 87q31 -34 80 -59v-9q-18 0 -24 -36q-16 -95 -16 -208q0 -48 8 -65q11 -22 52 -46zM8 549l-25 15q46 49 128 143q33 -35 81 -74q42 -35 47 -35q4 0 14 2
l6 -11l-57 -40q-43 29 -109 93q-33 -41 -85 -93z" />
    <glyph glyph-name="idieresis" unicode="&#xef;" horiz-adv-x="241" 
d="M198 79l25 33l14 -10q-23 -30 -70 -102q-63 48 -79 72t-16 65q0 114 15 255q-28 19 -41 34l-26 -22l-11 11q40 36 89 87q31 -34 80 -59v-9q-18 0 -24 -36q-16 -95 -16 -208q0 -48 8 -65q11 -22 52 -46zM24 539v0l-12 11q12 18 12 22q0 13 -44 44q38 25 61 67
q47 -36 47 -55q0 -13 -13 -31q-9 -12 -51 -58zM198 539v0l-12 11q12 18 12 22q0 13 -44 44q38 25 61 67q47 -36 47 -55q0 -13 -13 -31q-9 -12 -51 -58z" />
    <glyph glyph-name="eth" unicode="&#xf0;" horiz-adv-x="444" 
d="M59 490l-30 20q68 40 101 60q-64 57 -64 68q0 22 119 112l20 -14q-59 -42 -59 -57q0 -18 55 -65q61 36 104 67l34 -19q-71 -37 -119 -67q126 -117 171 -188q34 -55 34 -113q0 -102 -110 -207q-59 -50 -117 -99l-10 6q4 5 4 12q0 2 -45 28q-53 31 -83 67q-45 53 -45 122
q0 50 28 95q30 49 105 115l11 -10q-66 -68 -66 -139q0 -95 56 -154q47 -49 98 -49q38 0 73 53t35 102q0 75 -37 135q-44 72 -171 181q-10 -6 -92 -62z" />
    <glyph glyph-name="ntilde" unicode="&#xf1;" horiz-adv-x="481" 
d="M342 382l-55 39q-104 -139 -125 -233q-6 -28 -10 -144q-46 -25 -75 -50q15 66 26 394q-14 8 -44 33l-36 -38l-14 12q58 58 93 107q35 -43 82 -61q-11 -15 -33 -196h2q22 52 86.5 147.5t92.5 115.5l10 -9l-5 -9l81 -61h7v-18h-8q-10 -15 -21 -87q-11 -76 -11 -144
q0 -44 12.5 -69t45.5 -42l40 42l14 -11q-21 -18 -88 -106q-51 32 -67.5 65.5t-16.5 103.5q0 90 17 219zM111 553v0l-18 7q56 90 83 90q17 0 75 -24t77 -24q14 0 43 43l18 -7q-56 -90 -83 -90q-16 0 -74 24t-78 24q-14 0 -43 -43z" />
    <glyph glyph-name="ograve" unicode="&#xf2;" horiz-adv-x="444" 
d="M220 -6l-11 6q4 4 4 6q-56 37 -88 57q-104 65 -104 156q0 67 50 137q43 58 149 152l11 -6q-4 -4 -4 -6q62 -40 89 -56q107 -65 107 -149q0 -113 -203 -297zM357 232q0 85 -81 145q-62 46 -103 46q-23 0 -52 -34q-34 -42 -34 -95q0 -107 79 -165q53 -39 92 -39q37 0 68 43
t31 99zM104 695l4 11q6 -2 15 -2q27 0 60 16q68 -99 111 -146l-11 -12q-52 36 -103 73q-56 40 -76 60z" />
    <glyph glyph-name="oacute" unicode="&#xf3;" horiz-adv-x="444" 
d="M220 -6l-11 6q4 4 4 6q-56 37 -88 57q-104 65 -104 156q0 67 50 137q43 58 149 152l11 -6q-4 -4 -4 -6q62 -40 89 -56q107 -65 107 -149q0 -113 -203 -297zM357 232q0 85 -81 145q-62 46 -103 46q-23 0 -52 -34q-34 -42 -34 -95q0 -107 79 -165q53 -39 92 -39q37 0 68 43
t31 99zM161 562l-11 12q43 47 111 146q33 -16 60 -16q9 0 15 2l4 -11q-23 -23 -179 -133z" />
    <glyph glyph-name="ocircumflex" unicode="&#xf4;" horiz-adv-x="444" 
d="M220 -6l-11 6q4 4 4 6q-56 37 -88 57q-104 65 -104 156q0 67 50 137q43 58 149 152l11 -6q-4 -4 -4 -6q62 -40 89 -56q107 -65 107 -149q0 -113 -203 -297zM357 232q0 85 -81 145q-62 46 -103 46q-23 0 -52 -34q-34 -42 -34 -95q0 -107 79 -165q53 -39 92 -39q37 0 68 43
t31 99zM109 549l-25 15q46 49 128 143q33 -35 81 -74q42 -35 47 -35q4 0 14 2l6 -11l-57 -40q-43 29 -109 93q-33 -41 -85 -93z" />
    <glyph glyph-name="otilde" unicode="&#xf5;" horiz-adv-x="444" 
d="M220 -6l-11 6q4 4 4 6q-56 37 -88 57q-104 65 -104 156q0 67 50 137q43 58 149 152l11 -6q-4 -4 -4 -6q62 -40 89 -56q107 -65 107 -149q0 -113 -203 -297zM357 232q0 85 -81 145q-62 46 -103 46q-23 0 -52 -34q-34 -42 -34 -95q0 -107 79 -165q53 -39 92 -39q37 0 68 43
t31 99zM92 553v0l-18 7q56 90 83 90q17 0 75 -24t77 -24q14 0 43 43l18 -7q-56 -90 -83 -90q-16 0 -74 24t-78 24q-14 0 -43 -43z" />
    <glyph glyph-name="odieresis" unicode="&#xf6;" horiz-adv-x="444" 
d="M220 -6l-11 6q4 4 4 6q-56 37 -88 57q-104 65 -104 156q0 67 50 137q43 58 149 152l11 -6q-4 -4 -4 -6q62 -40 89 -56q107 -65 107 -149q0 -113 -203 -297zM357 232q0 85 -81 145q-62 46 -103 46q-23 0 -52 -34q-34 -42 -34 -95q0 -107 79 -165q53 -39 92 -39q37 0 68 43
t31 99zM125 539v0l-12 11q12 18 12 22q0 13 -44 44q38 25 61 67q47 -36 47 -55q0 -13 -13 -31q-9 -12 -51 -58zM299 539v0l-12 11q12 18 12 22q0 13 -44 44q38 25 61 67q47 -36 47 -55q0 -13 -13 -31q-9 -12 -51 -58z" />
    <glyph glyph-name="divide" unicode="&#xf7;" horiz-adv-x="600" 
d="M47 223v60h506v-60h-506zM240 48q0 25 17.5 42.5t42.5 17.5t42.5 -17.5t17.5 -42.5t-17.5 -42.5t-42.5 -17.5t-42.5 17.5t-17.5 42.5zM240 458q0 25 17.5 42.5t42.5 17.5t42.5 -17.5t17.5 -42.5t-17.5 -42.5t-42.5 -17.5t-42.5 17.5t-17.5 42.5z" />
    <glyph glyph-name="oslash" unicode="&#xf8;" horiz-adv-x="444" 
d="M357 232q0 72 -61 128q-60 -101 -132 -229q52 -41 94 -41q37 0 68 43t31 99zM220 -6l-11 6q4 4 4 6q-54 36 -87 56q-22 -36 -38 -68l-29 11q7 13 21.5 37.5t21.5 36.5q-81 60 -81 140q0 67 50 137q43 58 149 152l11 -6q-4 -4 -4 -6q35 -24 83 -52q15 25 43 77l29 -13
q-16 -26 -47 -81q88 -60 88 -136q0 -113 -203 -297zM87 294q0 -89 56 -145q77 131 131 229q-63 45 -101 45q-23 0 -52 -34q-34 -42 -34 -95z" />
    <glyph glyph-name="ugrave" unicode="&#xf9;" horiz-adv-x="463" 
d="M422 71l44 48l15 -11q-45 -47 -94 -114q-40 51 -87 77q19 37 19 112l-2 2q-43 -71 -150 -185l-11 8l5 5q-19 20 -49.5 43t-37.5 23q-4 0 -6 -2l-5 9q44 18 44 208q0 92 -58 120l-32 -32l-12 13q54 53 95 107l12 -13l-4 -6q39 -31 54 -76q11 -34 11 -92q0 -34 -9 -109.5
t-14 -83.5q27 -15 57 -48q75 76 101 139q17 41 17 153q0 41 -6 85q34 19 87 57q-27 -175 -27 -319q0 -58 3 -81zM104 695l4 11q6 -2 15 -2q27 0 60 16q68 -99 111 -146l-11 -12q-52 36 -103 73q-56 40 -76 60z" />
    <glyph glyph-name="uacute" unicode="&#xfa;" horiz-adv-x="463" 
d="M422 71l44 48l15 -11q-45 -47 -94 -114q-40 51 -87 77q19 37 19 112l-2 2q-43 -71 -150 -185l-11 8l5 5q-19 20 -49.5 43t-37.5 23q-4 0 -6 -2l-5 9q44 18 44 208q0 92 -58 120l-32 -32l-12 13q54 53 95 107l12 -13l-4 -6q39 -31 54 -76q11 -34 11 -92q0 -34 -9 -109.5
t-14 -83.5q27 -15 57 -48q75 76 101 139q17 41 17 153q0 41 -6 85q34 19 87 57q-27 -175 -27 -319q0 -58 3 -81zM181 562l-11 12q43 47 111 146q33 -16 60 -16q9 0 15 2l4 -11q-23 -23 -179 -133z" />
    <glyph glyph-name="ucircumflex" unicode="&#xfb;" horiz-adv-x="463" 
d="M422 71l44 48l15 -11q-45 -47 -94 -114q-40 51 -87 77q19 37 19 112l-2 2q-43 -71 -150 -185l-11 8l5 5q-19 20 -49.5 43t-37.5 23q-4 0 -6 -2l-5 9q44 18 44 208q0 92 -58 120l-32 -32l-12 13q54 53 95 107l12 -13l-4 -6q39 -31 54 -76q11 -34 11 -92q0 -34 -9 -109.5
t-14 -83.5q27 -15 57 -48q75 76 101 139q17 41 17 153q0 41 -6 85q34 19 87 57q-27 -175 -27 -319q0 -58 3 -81zM119 549l-25 15q46 49 128 143q33 -35 81 -74q42 -35 47 -35q4 0 14 2l6 -11l-57 -40q-43 29 -109 93q-33 -41 -85 -93z" />
    <glyph glyph-name="udieresis" unicode="&#xfc;" horiz-adv-x="463" 
d="M422 71l44 48l15 -11q-45 -47 -94 -114q-40 51 -87 77q19 37 19 112l-2 2q-43 -71 -150 -185l-11 8l5 5q-19 20 -49.5 43t-37.5 23q-4 0 -6 -2l-5 9q44 18 44 208q0 92 -58 120l-32 -32l-12 13q54 53 95 107l12 -13l-4 -6q39 -31 54 -76q11 -34 11 -92q0 -34 -9 -109.5
t-14 -83.5q27 -15 57 -48q75 76 101 139q17 41 17 153q0 41 -6 85q34 19 87 57q-27 -175 -27 -319q0 -58 3 -81zM135 539v0l-12 11q12 18 12 22q0 13 -44 44q38 25 61 67q47 -36 47 -55q0 -13 -13 -31q-9 -12 -51 -58zM309 539v0l-12 11q12 18 12 22q0 13 -44 44
q38 25 61 67q47 -36 47 -55q0 -13 -13 -31q-9 -12 -51 -58z" />
    <glyph glyph-name="yacute" unicode="&#xfd;" horiz-adv-x="463" 
d="M21 383l-13 10q65 73 96 115l9 -6q-2 -4 -2 -9l17 -18q20 -21 32 -53q17 -46 17 -116q0 -50 -10 -114q-9 -58 -17 -70q29 -15 61 -44q29 26 66 81q35 52 45 83q0 118 -2 148q-2 39 -11 57q69 38 94 67l9 -6q-24 -85 -24 -302q0 -40 1 -103.5t1 -90.5q0 -82 -69 -137
q-76 -60 -204 -60q-161 0 -161 57q0 18 10.5 37t54.5 83l13 -11q-18 -25 -18 -46q0 -35 38 -60q44 -30 123 -30q64 0 104 55q39 52 40 130l2 148h-2q-34 -51 -158 -186l-9 8q5 5 5 8q0 5 -33 34.5t-40 29.5q-12 0 -18 -2v11q14 0 24 46q13 60 13 184q0 48 -20 79
q-15 24 -27 24q-9 0 -37 -31zM181 562l-11 12q43 47 111 146q33 -16 60 -16q9 0 15 2l4 -11q-23 -23 -179 -133z" />
    <glyph glyph-name="thorn" unicode="&#xfe;" horiz-adv-x="444" 
d="M49 427l53 41v72q0 72 100 147t151 75q15 0 35 -12.5t20 -25.5q0 -12 -53 -74l-12 8q5 6 5 17q0 14 -15 26.5t-33 12.5q-38 0 -76 -43q-48 -54 -52 -147l-8 -193h2q28 55 54 90q17 22 72 87l11 -6q-2 -2 -2 -5q0 -9 33 -41q43 -41 62 -69q33 -48 33 -94q0 -56 -46 -130
q-29 -45 -87 -111q-49 -56 -50 -64l-10 6q0 1 1 2v3q0 22 -80 63q-3 -162 -3 -160q0 -15 1 -44v-43l-83 -55q15 127 22 325q-4 3 -9 3q-4 0 -27 -23l-11 8q12 16 24 33q17 22 28 27q3 216 3 270q0 33 -8 33t-37 -24zM161 178l-1 -45q30 -18 59 -36q43 -26 59 -26t56.5 61.5
t40.5 98.5q0 54 -48 123q-46 65 -72 65q-25 0 -58 -76q-34 -82 -36 -165z" />
    <glyph glyph-name="ydieresis" unicode="&#xff;" horiz-adv-x="463" 
d="M21 383l-13 10q65 73 96 115l9 -6q-2 -4 -2 -9l17 -18q20 -21 32 -53q17 -46 17 -116q0 -50 -10 -114q-9 -58 -17 -70q29 -15 61 -44q29 26 66 81q35 52 45 83q0 118 -2 148q-2 39 -11 57q69 38 94 67l9 -6q-24 -85 -24 -302q0 -40 1 -103.5t1 -90.5q0 -82 -69 -137
q-76 -60 -204 -60q-161 0 -161 57q0 18 10.5 37t54.5 83l13 -11q-18 -25 -18 -46q0 -35 38 -60q44 -30 123 -30q64 0 104 55q39 52 40 130l2 148h-2q-34 -51 -158 -186l-9 8q5 5 5 8q0 5 -33 34.5t-40 29.5q-12 0 -18 -2v11q14 0 24 46q13 60 13 184q0 48 -20 79
q-15 24 -27 24q-9 0 -37 -31zM135 539v0l-12 11q12 18 12 22q0 13 -44 44q38 25 61 67q47 -36 47 -55q0 -13 -13 -31q-9 -12 -51 -58zM309 539v0l-12 11q12 18 12 22q0 13 -44 44q38 25 61 67q47 -36 47 -55q0 -13 -13 -31q-9 -12 -51 -58z" />
    <glyph glyph-name="dotlessi" unicode="&#x131;" horiz-adv-x="241" 
d="M198 79l25 33l14 -10q-23 -30 -70 -102q-63 48 -79 72t-16 65q0 114 15 255q-28 19 -41 34l-26 -22l-11 11q40 36 89 87q31 -34 80 -59v-9q-18 0 -24 -36q-16 -95 -16 -208q0 -48 8 -65q11 -22 52 -46z" />
    <glyph glyph-name="Lslash" unicode="&#x141;" horiz-adv-x="778" 
d="M709 596q0 45 -20 77q-19 29 -39 29q-58 0 -100 -104q-34 -102 -68 -203q68 0 147.5 69.5t79.5 131.5zM65 94q-39 0 -68.5 -17.5t-29.5 -43.5q0 -17 17 -32q22 -21 61 -21q52 0 111 29q52 25 86 59q-125 26 -177 26zM236 192l18 36q4 1 123 38q27 59 38 116q-40 4 -82 26
q-46 24 -72 60q-13 18 -53 56q36 21 83 74q9 -22 70 -78q-14 0 -27.5 -13t-13.5 -29q0 -60 98 -78q25 136 43 189q13 41 35 63q32 32 99 57q63 23 107 23q23 0 44 -31q23 -34 23 -84q0 -80 -112 -163q-104 -77 -182 -77q-23 -59 -41 -93q67 22 203 70l-18 -36
q-93 -28 -199 -62q-28 -52 -87 -131q335 -53 381 -53q17 0 31 35l16 -5q-50 -114 -60 -114q-7 0 -64 10l-362 64q-45 -41 -104 -69q-66 -31 -121 -31q-49 0 -78 23q-23 20 -23 44q0 45 61 86q57 39 107 39q43 0 182 -24q35 52 63 106q-32 -10 -126 -44z" />
    <glyph glyph-name="lslash" unicode="&#x142;" horiz-adv-x="241" 
d="M46 410l-10 11q13 16 48 47q0 86 11.5 120t101.5 104t127 70q18 0 39.5 -12.5t21.5 -24.5q0 -8 -56 -78l-13 9q9 13 9 23t-12.5 19.5t-33.5 9.5q-22 0 -54 -27q-39 -34 -52 -83q-15 -60 -19 -244q59 43 127 97l-5 -36q-82 -56 -123 -86q0 -42 1.5 -112.5t1.5 -100.5
q0 -13 16 -28t25 -15q8 0 46 38l13 -11q-46 -48 -94 -112l-12 6q3 3 3 8q0 7 -32.5 31.5t-38.5 24.5q-4 0 -12 -2l-9 8q19 14 23 99v114l-66 -51l6 37l60 42q1 15 1 99q0 28 -10 28q-7 0 -29 -22z" />
    <glyph glyph-name="OE" unicode="&#x152;" horiz-adv-x="1130" 
d="M951 284l-12 7q21 27 21 43q0 20 -122 20q-55 0 -79.5 -8t-37.5 -29q20 -80 96 -155q83 -84 167 -84q27 0 48 11q26 14 96 67l9 -12q-158 -125 -178 -156q-57 27 -113 55q-110 59 -151 132q-42 -63 -105 -96q-89 -47 -133 -85q-214 41 -317 119q-113 85 -113 225
q0 118 77 204q62 70 191 133q4 39 12 83l25 -20q-18 -61 -25 -140h2q14 22 84.5 66.5t87.5 67.5q13 -13 67 -31q63 -20 97 -41q58 -35 94 -94q59 55 103 85q93 63 117 81q24 -17 103 -44q66 -23 66 -33q0 -12 -87 -125l-13 7q26 34 26 54q0 12 -51 34t-79 22q-75 0 -142 -83
q-69 -87 -69 -191q0 -20 2 -34h2q26 30 75 90q28 -15 126 -15q95 0 123 15l5 -10q-52 -70 -95 -135zM315 206l-30 14q-8 82 -8 120q0 31 1 67.5t1 45.5q-10 35 -61 69q42 8 65 49q2 14 8 76q-192 -71 -192 -278q0 -127 133 -216q113 -75 221 -75q94 0 143 36q41 30 72 106
q-21 58 -21 114q0 96 41 161q-27 53 -101 98q-83 49 -171 49q-30 0 -64 -26t-34 -50q0 -35 46 -58q-38 -20 -63 -47q0 -170 14 -255z" />
    <glyph glyph-name="oe" unicode="&#x153;" horiz-adv-x="667" 
d="M511 -6l-11 6l4 6q-96 59 -137 140q-54 -67 -147 -152l-11 6q4 4 4 6q-56 37 -88 57q-104 65 -104 156q0 67 50 137q43 58 149 152l11 -6q-4 -4 -4 -6q0 -21 33 -34l56 -22q49 -30 77 -68q32 42 84.5 88.5t53.5 47.5q55 -32 91 -103l14 8l7 -12q-76 -51 -219 -157l10 54
h7q1 -8 9 -8q7 0 47.5 31t40.5 39q0 20 -15.5 46t-29.5 26q-28 0 -58 -41t-30 -89q0 -88 63 -159q51 -59 83 -59q9 0 25 16l75 74l14 -11q-64 -65 -77 -79q-47 -51 -77 -90zM357 232q0 85 -81 145q-62 46 -103 46q-23 0 -52 -34q-34 -42 -34 -95q0 -107 79 -165
q53 -39 92 -39q37 0 68 43t31 99z" />
    <glyph glyph-name="Scaron" unicode="&#x160;" horiz-adv-x="796" 
d="M477 -12q-215 34 -328 125t-113 227q0 108 87 210q67 78 170 138q85 50 115 50q13 0 35 -14q37 -25 62 -37q36 159 133 159q65 0 65 -77q0 -55 -42 -123t-81 -68q-27 0 -76 27q-12 -65 -18 -139q113 36 150 36q45 0 81 -48q38 -52 38 -127q0 -60 -65 -135
q-38 -45 -126 -120q-76 -64 -87 -84zM685 774q0 54 -47 54q-80 0 -118 -149q57 -29 87 -29q28 0 52 34q26 38 26 90zM481 100l-25 10q2 44 2 65q-35 40 -71 60q45 31 70 64q1 27 5 83q-216 -75 -234 -75q-13 0 -86 89l14 8q15 -19 48 -19q22 0 264 76q8 95 20 152
q-99 53 -142 53q-65 0 -138 -68q-94 -87 -94 -224q0 -145 132 -232q105 -70 220 -70q88 0 155 79q62 72 62 150q0 52 -21 87.5t-49 35.5q-33 0 -133 -36q-2 -32 -4 -98q28 -38 58 -55q-30 -16 -58 -52q1 -30 5 -83zM260 900l57 40q43 -29 109 -93q33 41 85 93l25 -15
q-46 -49 -128 -143q-33 35 -81 74q-42 35 -47 35q-4 0 -14 -2z" />
    <glyph glyph-name="scaron" unicode="&#x161;" horiz-adv-x="389" 
d="M10 59l-12 14q31 33 75 90q75 -26 122 -58q36 -25 41 -25q23 0 45 28.5t22 50.5q0 31 -31 49q-25 16 -94 32q-86 20 -111 34t-25 44q0 49 70 122q65 68 88 68q12 0 54 -24.5t54 -24.5q15 0 42 36l13 -11q-69 -97 -83 -97q-13 0 -55 27.5t-65 27.5q-21 0 -36.5 -23.5
t-15.5 -47.5q0 -23 16.5 -34t80.5 -28q93 -24 125.5 -41.5t32.5 -45.5q0 -66 -151 -228q-99 91 -160 91q-23 0 -42 -26zM62 665l57 40q43 -29 109 -93q33 41 85 93l25 -15q-46 -49 -128 -143q-33 35 -81 74q-42 35 -47 35q-4 0 -14 -2z" />
    <glyph glyph-name="Ydieresis" unicode="&#x178;" horiz-adv-x="778" 
d="M206 18l14 -8q-21 -32 -21 -69q0 -52 45 -91q50 -44 134 -44q96 0 153.5 54.5t57.5 144.5q0 18 4 101q3 87 4 175l-2 2q-48 -96 -136 -188q-89 -95 -135 -95q-51 0 -71 115q-8 47 -12 154q-99 0 -158 56.5t-59 155.5q0 101 82 175q70 64 134 64q29 0 52 -73.5t23 -166.5
q0 -29 -1 -87.5t-1 -87.5q46 10 72 35q21 19 21 34q0 24 -28 41q49 23 76 62q25 -55 58 -84q-13 -3 -74 -50q-69 -53 -125 -62q8 -221 63 -221q27 0 79 58q57 63 95 146q46 100 46 193q0 -22 -7 216q22 0 60 25q30 19 44 34l6 -7q-31 -66 -31 -305q0 -59 2.5 -187t2.5 -191
q0 -124 -101 -195q-92 -65 -233 -65q-86 0 -151 32q-61 31 -61 66q0 27 79 138zM237 482q0 172 -75 172q-41 0 -80.5 -54.5t-39.5 -117.5q0 -92 56 -142q53 -47 142 -47q0 31 -1.5 93.5t-1.5 95.5zM342 774v0l-12 11q12 18 12 22q0 13 -44 44q38 25 61 67q47 -36 47 -55
q0 -13 -13 -31q-9 -12 -51 -58zM516 774v0l-12 11q12 18 12 22q0 13 -44 44q38 25 61 67q47 -36 47 -55q0 -13 -13 -31q-9 -12 -51 -58z" />
    <glyph glyph-name="Zcaron" unicode="&#x17d;" horiz-adv-x="667" 
d="M316 -20l-30 20q-4 72 -6 146q-23 30 -58 47q36 29 36 53q0 20 -25 39q-30 24 -77 24q-52 0 -95 -33q-52 -40 -52 -111q0 -122 133 -213q116 -80 228 -80q93 0 148 56q50 52 50 129q0 76 -42 151q-33 60 -84 106q-45 40 -66 40q-12 0 -21 -14l-10 8q117 166 117 190
q0 12 -14 20l-166 90q-25 14 -25 34q0 14 73 89l11 -9q-15 -16 -15 -26q0 -8 22 -24q19 -16 38 -25l132 -66q22 -11 22 -32q0 -36 -121 -181l2 -2q6 2 24 2q54 0 121 -92q74 -102 74 -215q0 -92 -72 -166q-78 -81 -190 -81q-125 0 -246 81q-141 96 -141 235q0 71 52 115
q48 42 118 42q64 0 114 -35q0 131 5 294l24 -18q-9 -86 -11 -290q10 -9 34 -40q19 -26 36 -37q-34 -19 -65 -55q4 -68 18 -166zM246 900l57 40q43 -29 109 -93q33 41 85 93l25 -15q-46 -49 -128 -143q-33 35 -81 74q-42 35 -47 35q-4 0 -14 -2z" />
    <glyph glyph-name="zcaron" unicode="&#x17e;" horiz-adv-x="370" 
d="M44 407l-13 10l94 91l12 -6q-3 -4 -3 -8q0 -5 70 -40.5t82 -35.5q5 0 11 6l10 -7q-86 -114 -133 -168q2 0 7 1t8 1q39 0 95 -57q67 -68 67 -151q0 -101 -88 -167q-83 -61 -196 -61q-67 0 -110 20q-36 17 -36 36q0 23 64 120l15 -9q-19 -24 -19 -44q0 -34 34 -59
q38 -28 98 -28q87 0 134 52q38 43 38 102q0 74 -67 136q-55 50 -86 50q-9 0 -17 -10l-11 9q70 86 130 176q-130 65 -152 65q-14 0 -38 -24zM47 665l57 40q43 -29 109 -93q33 41 85 93l25 -15q-46 -49 -128 -143q-33 35 -81 74q-42 35 -47 35q-4 0 -14 -2z" />
    <glyph glyph-name="florin" unicode="&#x192;" horiz-adv-x="778" 
d="M311 290l4 -99q3 -63 7 -85q11 -58 43 -58q38 0 101 80q72 91 112 216q12 37 12 216q0 37 -2 107q58 14 105 61l7 -7q-50 -121 -50 -448q0 -203 57 -203q16 0 62 54l13 -10q-99 -123 -111 -123q-21 0 -47 33q-39 51 -42 152l-2 72h-2q-50 -90 -136 -175t-124 -85
q-35 0 -58 43q-25 48 -25 134v110q-13 -3 -30 -3q-75 0 -131 52q-60 55 -60 136q0 108 85 190q72 70 132 70q29 0 55 -48q29 -53 29 -126q0 -95 -4 -233q93 36 93 73q0 20 -31 42q38 14 77 57q20 -47 61 -88q-5 -3 -62 -43q-52 -37 -138 -64zM237 538q0 60 -22 93
q-18 29 -46 29q-36 0 -82 -51q-55 -62 -55 -148q0 -75 52.5 -123t129.5 -48q7 0 21 2q2 79 2 246zM341 770l-12 11q12 18 12 22q0 13 -44 44q38 25 61 67q47 -36 47 -55q0 -13 -13 -31q-9 -12 -51 -58zM515 770l-12 11q12 18 12 22q0 13 -44 44q38 25 61 67q47 -36 47 -55
q0 -13 -13 -31q-9 -12 -51 -58z" />
    <glyph glyph-name="circumflex" unicode="&#x2c6;" 
d="M7 549l-25 15q46 49 128 143q33 -35 81 -74q42 -35 47 -35q4 0 14 2l6 -11l-57 -40q-43 29 -109 93q-33 -41 -85 -93z" />
    <glyph glyph-name="caron" unicode="&#x2c7;" 
d="M-18 665l57 40q43 -29 109 -93q33 41 85 93l25 -15q-46 -49 -128 -143q-33 35 -81 74q-42 35 -47 35q-4 0 -14 -2z" />
    <glyph glyph-name="macron" unicode="&#xaf;" 
d="M-4 575l-12 7q22 42 30.5 50t28.5 8h91q59 -1 87 -1q18 0 23 11l12 -8q-22 -56 -47 -56q-58 0 -126 -1t-79 -1q-5 0 -8 -9z" />
    <glyph glyph-name="macron" unicode="&#x2c9;" 
d="M-4 575l-12 7q22 42 30.5 50t28.5 8h91q59 -1 87 -1q18 0 23 11l12 -8q-22 -56 -47 -56q-58 0 -126 -1t-79 -1q-5 0 -8 -9z" />
    <glyph glyph-name="breve" unicode="&#x2d8;" 
d="M-29 650l59 38q77 -82 110 -82q43 0 109 80l20 -14q-99 -120 -146 -120q-23 0 -47 15q-28 17 -92 72l-6 -2z" />
    <glyph glyph-name="dotaccent" unicode="&#x2d9;" 
d="M110 539l-12 11q12 18 12 22q0 13 -44 44q38 25 61 67q47 -36 47 -55q0 -13 -13 -31q-9 -12 -51 -58z" />
    <glyph glyph-name="ring" unicode="&#x2da;" 
d="M26 638q0 39 27.5 66.5t66.5 27.5t66.5 -27.5t27.5 -66.5t-27.5 -66.5t-66.5 -27.5t-66.5 27.5t-27.5 66.5zM172 638q0 22 -15 37t-37 15t-37 -15t-15 -37t15 -37t37 -15t37 15t15 37z" />
    <glyph glyph-name="ogonek" unicode="&#x2db;" 
d="M137 50h21q-58 -79 -58 -119q0 -18 17 -37t40 -19q20 0 62 38l12 -12l-87 -86q-45 0 -71.5 22t-26.5 56q0 25 16 53q18 32 75 104z" />
    <glyph glyph-name="tilde" unicode="&#x2dc;" 
d="M-10 553v0l-18 7q56 90 83 90q17 0 75 -24t77 -24q14 0 43 43l18 -7q-56 -90 -83 -90q-16 0 -74 24t-78 24q-14 0 -43 -43z" />
    <glyph glyph-name="hungarumlaut" unicode="&#x2dd;" 
d="M-28 562l-11 12q43 47 111 146q33 -16 60 -16q9 0 15 2l4 -11q-23 -23 -179 -133zM146 562l-11 12q43 47 111 146q33 -16 60 -16q9 0 15 2l4 -11q-23 -23 -179 -133z" />
    <glyph glyph-name="mu" unicode="&#xb5;" horiz-adv-x="463" 
d="M422 71l44 48l15 -11q-45 -47 -94 -114q-40 51 -87 77q18 41 19 93h-2q-17 -38 -114 -170q-15 16 -50 48q-3 -147 -3 -146q0 -27 2 -83l-83 -55q9 60 20 222.5t11 249.5q0 111 -7 136t-44 48l-32 -32l-12 13q54 53 95 107l12 -13l-4 -6q58 -46 58 -141q0 6 -9 -225
q35 -23 72 -53q47 71 79 149q17 41 17 153q0 41 -6 85q34 19 87 57q-27 -175 -27 -319q0 -58 3 -81z" />
    <glyph glyph-name="mu" unicode="&#x3bc;" horiz-adv-x="463" 
d="M422 71l44 48l15 -11q-45 -47 -94 -114q-40 51 -87 77q18 41 19 93h-2q-17 -38 -114 -170q-15 16 -50 48q-3 -147 -3 -146q0 -27 2 -83l-83 -55q9 60 20 222.5t11 249.5q0 111 -7 136t-44 48l-32 -32l-12 13q54 53 95 107l12 -13l-4 -6q58 -46 58 -141q0 6 -9 -225
q35 -23 72 -53q47 71 79 149q17 41 17 153q0 41 -6 85q34 19 87 57q-27 -175 -27 -319q0 -58 3 -81z" />
    <glyph glyph-name="endash" unicode="&#x2013;" horiz-adv-x="389" 
d="M10 59l-12 14q31 33 75 90q75 -26 122 -58q36 -25 41 -25q23 0 45 28.5t22 50.5q0 31 -31 49q-25 16 -94 32q-86 20 -111 34t-25 44q0 49 70 122q65 68 88 68q12 0 54 -24.5t54 -24.5q15 0 42 36l13 -11q-69 -97 -83 -97q-13 0 -55 27.5t-65 27.5q-21 0 -36.5 -23.5
t-15.5 -47.5q0 -23 16.5 -34t80.5 -28q93 -24 125.5 -41.5t32.5 -45.5q0 -66 -151 -228q-99 91 -160 91q-23 0 -42 -26z" />
    <glyph glyph-name="emdash" unicode="&#x2014;" horiz-adv-x="1000" 
d="M0 268v48h1000v-48h-1000z" />
    <glyph glyph-name="quoteleft" unicode="&#x2018;" 
d="M143 732v0l21 -15q-33 -58 -33 -70q0 -16 46 -41q-22 -21 -48 -73q-66 47 -66 58q0 22 80 141z" />
    <glyph glyph-name="quoteright" unicode="&#x2019;" 
d="M97 533v0l-21 15q33 58 33 70q0 16 -46 41q22 21 48 73q66 -47 66 -58q0 -22 -80 -141z" />
    <glyph glyph-name="quotesinglbase" unicode="&#x201a;" 
d="M97 -85v0l-21 15q33 58 33 70q0 16 -46 41q22 21 48 73q66 -47 66 -58q0 -22 -80 -141z" />
    <glyph glyph-name="quotedblleft" unicode="&#x201c;" horiz-adv-x="333" 
d="M119 732v0l21 -15q-33 -58 -33 -70q0 -16 46 -41q-22 -21 -48 -73q-66 47 -66 58q0 22 80 141zM260 732v0l21 -15q-33 -58 -33 -70q0 -16 46 -41q-22 -21 -48 -73q-66 47 -66 58q0 22 80 141z" />
    <glyph glyph-name="quotedblright" unicode="&#x201d;" horiz-adv-x="556" 
d="M47 407v0l-14 12q25 37 44 59q8 -2 13 -2q6 0 6 32q0 28 -7 46q52 20 77 78h12q-12 -88 -18 -158l101 4q13 1 50 34l10 -4q-4 -5 -4 -9q0 -8 72 -43q69 -34 78 -34q5 0 14 7l8 -9q-98 -130 -132 -165l2 -2q2 1 8 1q36 0 93 -51q74 -67 74 -157q0 -102 -85 -168
q-80 -63 -192 -63q-68 0 -108 20q-35 17 -35 41q0 12 36 73t36 65q0 10 -48 36t-56 26t-17 -9l-9 12q22 13 27 72q13 163 13 244q0 33 -20 33q-14 0 -29 -21zM241 89v0l33 42l16 -12q-34 -38 -67 -86q-47 -68 -47 -97q0 -40 41 -64q36 -21 83 -21q75 0 121.5 45t46.5 109
q0 74 -65 137q-54 52 -89 52q-8 0 -15 -10l-14 10q70 86 131 178q-140 66 -152 66q-11 0 -19 -14l-85 -4l-8 -292q46 -33 89 -39z" />
    <glyph glyph-name="quotedblbase" unicode="&#x201e;" horiz-adv-x="333" 
d="M73 -85v0l-21 15q33 58 33 70q0 16 -46 41q22 21 48 73q66 -47 66 -58q0 -22 -80 -141zM214 -85v0l-21 15q33 58 33 70q0 16 -46 41q22 21 48 73q66 -47 66 -58q0 -22 -80 -141z" />
    <glyph glyph-name="dagger" unicode="&#x2020;" horiz-adv-x="480" 
d="M49 306l-7 5q13 13 27 56q48 -2 141 -7q0 91 -15 200q54 29 93 67l5 -3q-25 -173 -25 -265q114 0 163 11l7 -9q-13 -14 -26 -50q-67 6 -144 6q-3 -35 -3 -106q0 -248 10 -290q-60 -18 -71 -42l-9 4q16 194 16 325q0 75 -1 109q-128 0 -161 -11z" />
    <glyph glyph-name="daggerdbl" unicode="&#x2021;" horiz-adv-x="444" 
d="M220 -6l-12 9q3 3 3 7q0 6 -26 18q-39 17 -64 34q-100 68 -100 157q0 67 50 137q42 58 149 154l11 -8q-4 -4 -4 -6q62 -40 89 -56q107 -65 107 -149q0 -113 -203 -297zM357 232q0 85 -81 145q-62 46 -103 46q-23 0 -52 -34q-34 -42 -34 -95q0 -107 79 -165q53 -39 92 -39
q37 0 68 43t31 99zM131 548l-12 11q12 18 12 22q0 13 -44 44q38 25 61 67q47 -36 47 -55q0 -13 -13 -31q-9 -12 -51 -58zM306 548l-12 11q12 18 12 22q0 13 -44 44q38 25 61 67q47 -36 47 -55q0 -13 -13 -31q-9 -12 -51 -58z" />
    <glyph glyph-name="bullet" unicode="&#x2022;" horiz-adv-x="500" 
d="M395 325q-121 78 -167 156q-44 -81 -154 -167q84 -53 153 -167q68 99 168 178z" />
    <glyph glyph-name="ellipsis" unicode="&#x2026;" horiz-adv-x="1000" 
d="M174 -12v0l-11 6q2 4 2 11q0 3 -24 19.5t-40 23.5q41 43 54 78q26 -27 78 -55q-37 -38 -59 -83zM507 -12v0l-11 6q2 4 2 11q0 3 -24 19.5t-40 23.5q41 43 54 78q26 -27 78 -55q-37 -38 -59 -83zM840 -12v0l-11 6q2 4 2 11q0 3 -24 19.5t-40 23.5q41 43 54 78
q26 -27 78 -55q-37 -38 -59 -83z" />
    <glyph glyph-name="perthousand" unicode="&#x2030;" horiz-adv-x="500" 
d="M457 89l33 42l16 -12q-51 -60 -91 -119h-9q-6 25 -54 52q-41 24 -54 24q-8 0 -17 -9l-9 12q22 13 27 72q13 163 13 244q0 33 -20 33q-14 0 -29 -21l-14 12q25 37 44 59q8 -2 13 -2q6 0 6 32q0 28 -7 46q67 34 67 90q0 29 -24.5 46.5t-63.5 17.5q-15 0 -42 -19.5
t-44.5 -45t-22.5 -67.5q-3 -29 -6 -154q-6 -217 -21 -368q-9 -92 -25 -183q-13 -70 -13 -97l-22 -22q9 214 9 362q0 193 -4 258q-4 56 -14 56q-8 0 -32 -21l-11 13l55 56q2 95 16 125t74 74q104 75 171 75q25 0 55.5 -12.5t30.5 -25.5q0 -8 -16 -25q-20 -19 -30 -55
q-16 -55 -16 -158l101 4l13 18l16 -10q-17 -29 -45 -62l-85 -4l-8 -292q46 -33 89 -39z" />
    <glyph glyph-name="guilsinglleft" unicode="&#x2039;" horiz-adv-x="481" 
d="M261 420l55 56q2 84 12 114.5t48 59.5q-11 40 -72 40q-53 0 -89 -40q-29 -32 -36 -74q-7 -34 -10 -154q-6 -217 -21 -368q-9 -92 -25 -183q-13 -70 -13 -97l-22 -22q9 214 9 362q0 193 -4 258q-4 56 -14 56q-8 0 -32 -21l-11 13l55 56q0 99 28 129q48 52 111 88
q69 39 125 39q63 0 90 -32q79 50 136 50q32 0 59 -13.5t27 -24.5q0 -10 -64 -89l-11 9q8 14 8 26q0 14 -27 32t-58 18q-23 0 -52 -22q-25 -19 -41.5 -43.5t-20.5 -66.5q-4 -29 -7 -154q-6 -217 -21 -368q-9 -92 -25 -183q-13 -70 -13 -97l-22 -22q9 214 9 362q0 193 -4 258
q-4 56 -14 56q-8 0 -32 -21z" />
    <glyph glyph-name="guilsinglright" unicode="&#x203a;" horiz-adv-x="463" 
d="M47 407v0l-11 13l55 56l3 65q2 40 12.5 62.5t40.5 48.5q113 98 187 98q41 0 71 -23q24 -20 24 -36q0 -17 -70 -95l-13 12q15 15 15 26q0 17 -29 42q-32 26 -60 26q-60 0 -90 -94q-9 -28 -13 -186q-6 -217 -21 -368q-9 -92 -25 -183q-13 -70 -13 -97l-22 -22q9 214 9 362
q0 193 -4 258q-4 56 -14 56q-8 0 -32 -21zM434 79v0l25 33l14 -10q-23 -30 -70 -102q-63 48 -79 72t-16 65q0 114 15 255q-28 19 -41 34l-26 -22l-11 11q40 36 89 87q31 -34 80 -59v-9q-18 0 -24 -36q-16 -95 -16 -208q0 -48 8 -65q11 -22 52 -46z" />
    <glyph glyph-name="fraction" unicode="&#x2044;" horiz-adv-x="500" 
d="M430 640q-178 -334 -304 -656q-20 10 -56 20q178 334 304 656q20 -10 56 -20z" />
    <glyph glyph-name="trademark" unicode="&#x2122;" horiz-adv-x="990" 
d="M133 362v340h-49q-55 0 -69 -70h-18v88h338v-88h-18q-14 70 -69 70h-49v-340q0 -22 50 -28v-18h-166v18q50 6 50 28zM652 405l163 315h99v-18q-55 -3 -55 -58v-282q0 -22 50 -28v-18h-166v18q50 6 50 28v265h-2l-154 -314h-9l-151 311h-2v-225q0 -37 11 -49.5t40 -15.5
v-18h-132v18q32 4 43 20q8 12 8 45v252q-7 22 -26 36.5t-39 14.5v18h115z" />
    <glyph glyph-name="minus" unicode="&#xad;" horiz-adv-x="600" 
d="M47 223v60h506v-60h-506z" />
    <glyph glyph-name="minus" unicode="&#x2212;" horiz-adv-x="600" 
d="M47 223v60h506v-60h-506z" />
    <glyph glyph-name="periodcentered" unicode="&#xb7;" 
d="M60 305q0 25 17.5 42.5t42.5 17.5t42.5 -17.5t17.5 -42.5t-17.5 -42.5t-42.5 -17.5t-42.5 17.5t-17.5 42.5z" />
    <glyph glyph-name="periodcentered" unicode="&#x2219;" 
d="M60 305q0 25 17.5 42.5t42.5 17.5t42.5 -17.5t17.5 -42.5t-17.5 -42.5t-42.5 -17.5t-42.5 17.5t-17.5 42.5z" />
    <glyph glyph-name="fi" unicode="&#xf001;" horiz-adv-x="481" 
d="M451 79l25 33l14 -10q-23 -30 -70 -102q-63 48 -79 72t-16 65q0 114 15 255q-27 18 -41 32h-130q-5 -218 -20 -369q-10 -93 -26 -184q-13 -71 -13 -97l-23 -22q10 224 10 650q0 26 -11 26q-6 0 -38 -24l-13 16l56 56q1 95 15 125t74 74q104 75 175 75q27 0 58.5 -22
t31.5 -40q0 -11 -69 -94l-14 11q11 11 11 24q0 21 -21 44q-27 29 -68 29q-34 0 -68 -35q-38 -41 -42 -98l-6 -92q70 -5 95 -5q66 0 88 30q31 -34 80 -59v-9q-18 0 -24 -36q-16 -95 -16 -208q0 -48 8 -65q11 -22 52 -46z" />
    <glyph glyph-name="fl" unicode="&#xf002;" horiz-adv-x="500" 
d="M23 420l56 56q2 76 10 102q7 21 31 42q131 114 224 114q63 0 96 -45q92 73 130 73q17 0 38.5 -12.5t21.5 -24.5q0 -8 -56 -78l-13 9q9 13 9 23t-12.5 19.5t-33.5 9.5q-22 0 -54 -27q-39 -34 -52 -83q-20 -78 -20 -292q0 -66 2 -125.5t2 -64.5q0 -13 16 -28t25 -15
q8 0 46 38l13 -11q-46 -48 -94 -112l-12 6q3 3 3 8q0 7 -31 31.5t-38 24.5q-9 0 -14 -3l-8 9q14 10 18 29q6 25 6 99q0 359 10 395q4 14 33 45q-4 29 -31 46q-24 14 -53 14q-46 0 -83 -34q-44 -40 -47 -108l-3 -74q76 1 100 4.5t34 15.5l11 -12q-44 -45 -63.5 -53.5
t-82.5 -8.5q-5 -217 -20 -368q-10 -92 -26 -183q-13 -71 -13 -97l-23 -22q10 224 10 650q0 26 -11 26q-6 0 -38 -24z" />
    <glyph glyph-name="glyph231" 
 />
  </font>
</defs>
</svg>
